<svg width="633" height="543" viewBox="0 0 633 543" fill="none" xmlns="http://www.w3.org/2000/svg">
<path opacity="0.2" d="M324.753 294.252V279.834L303.933 267.812V253.394L283.112 241.36V226.954L262.303 214.931L172.339 264.003L195.706 277.428V291.845L216.527 303.856V318.285L237.347 330.296V344.726L328.55 476.53C418.865 461.282 487.811 415.295 516.903 355.86C520.268 348.99 523.263 342.07 525.888 335.098L324.753 294.252Z" fill="#07474B"/>
<path opacity="0.15" d="M196.513 13.1771C135.641 48.2282 86.2891 142.165 86.2891 223.04C86.2891 271.095 103.721 303.728 130.687 314.944L141.822 308.518L251.298 245.321L262.713 238.731C289.48 196.611 306.784 144.093 306.784 96.1898C306.737 15.3386 257.397 -21.839 196.513 13.1771Z" fill="#09A9B5"/>
<path opacity="0.15" d="M196.512 36.5679C145.361 66.0109 103.896 144.946 103.896 212.91C103.896 280.874 145.361 312.117 196.512 282.697C247.664 253.277 289.141 174.307 289.141 106.343C289.141 38.3789 247.675 7.13664 196.512 36.5679Z" fill="#09A9B5"/>
<path opacity="0.15" d="M196.513 53.0534C152.372 78.5472 116.585 146.92 116.585 205.771C116.585 264.622 152.372 291.693 196.513 266.211C240.654 240.729 276.442 172.344 276.442 113.482C276.442 54.619 240.666 27.5478 196.513 53.0534Z" fill="#09A9B5"/>
<path d="M149.381 208.564C149.381 157.576 180.389 98.3396 218.63 76.2457C235.49 66.5249 250.924 65.6252 262.923 72.0279L247.372 63.0314C235.221 56.0212 219.331 56.6054 201.992 66.63C163.728 88.7239 132.731 147.96 132.731 198.948C132.731 226.86 142.02 246.512 156.706 254.971C159.218 256.409 168.554 261.818 172.363 264.015C158.214 255.24 149.381 235.845 149.381 208.564Z" fill="#09A9B5"/>
<path opacity="0.3" d="M149.381 208.564C149.381 157.576 180.389 98.3396 218.63 76.2457C235.49 66.5249 250.924 65.6252 262.923 72.0279L247.372 63.0314C235.221 56.0212 219.331 56.6054 201.992 66.63C163.728 88.7239 132.731 147.96 132.731 198.948C132.731 226.86 142.02 246.512 156.706 254.971C159.218 256.409 168.554 261.818 172.363 264.015C158.214 255.24 149.381 235.845 149.381 208.564Z" fill="#222222"/>
<path d="M245.842 86.9363C251.882 94.998 255.119 107.827 254.394 124.511C252.653 165.404 227.779 214.055 198.85 233.088C190.064 238.871 181.897 241.266 174.863 240.624C183.649 252.308 198.371 253.978 215.499 242.704C244.44 223.671 269.314 175.055 271.055 134.115C272.247 105.63 261.942 88.3734 245.842 86.9363Z" fill="#09A9B5"/>
<path opacity="0.15" d="M245.842 86.9363C251.882 94.998 255.119 107.827 254.394 124.511C252.653 165.404 227.779 214.055 198.85 233.088C190.064 238.871 181.897 241.266 174.863 240.624C183.649 252.308 198.371 253.978 215.499 242.704C244.44 223.671 269.314 175.055 271.055 134.115C272.247 105.63 261.942 88.3734 245.842 86.9363Z" fill="black"/>
<path d="M167.023 99.4611L183.673 109.077L185.005 107.289L168.355 97.6501C167.9 98.2694 167.467 98.8185 167.023 99.4611Z" fill="#09A9B5"/>
<path d="M159.382 155.146L142.675 145.553C142.441 146.196 142.219 146.862 141.997 147.516L158.646 157.132C158.88 156.454 159.09 155.788 159.382 155.146Z" fill="#09A9B5"/>
<path d="M235.326 58.7903L251.987 68.441C252.665 68.5579 253.342 68.6747 254.008 68.8149L237.347 59.1992C236.681 59.024 236.004 58.8954 235.326 58.7903Z" fill="#09A9B5"/>
<path d="M151.729 183.386C151.858 182.661 151.998 181.925 152.138 181.201L135.489 171.585C135.337 172.309 135.197 173.034 135.068 173.77L151.729 183.386Z" fill="#09A9B5"/>
<path d="M183.393 80.7673L200.042 90.383C200.614 89.8339 201.21 89.2848 201.771 88.759L185.087 79.1433C184.538 79.6691 183.918 80.2182 183.393 80.7673Z" fill="#09A9B5"/>
<path d="M151.811 231.452C151.659 230.81 151.519 230.155 151.379 229.501L151.25 229.209L134.683 219.64C134.835 220.388 134.986 221.124 135.162 221.848L151.811 231.452Z" fill="#09A9B5"/>
<path d="M220.804 59.2227C220.103 59.3629 219.379 59.5498 218.666 59.7251L235.327 69.3408C236.051 69.1538 236.776 68.9902 237.488 68.85L220.804 59.2227Z" fill="#09A9B5"/>
<path d="M219.671 75.6849L203.021 66.1042C202.671 66.3029 202.332 66.4664 201.993 66.6651L200.977 67.2843L217.626 76.9L218.631 76.2808L219.671 75.6849Z" fill="#09A9B5"/>
<path d="M152.909 122.186L169.558 131.802L170.54 129.979L153.891 120.363C153.54 120.947 153.225 121.555 152.909 122.186Z" fill="#09A9B5"/>
<path d="M158.879 249.796C158.506 249.153 158.155 248.51 157.793 247.844L141.155 238.24C141.506 238.906 141.88 239.549 142.254 240.192L158.879 249.796Z" fill="#09A9B5"/>
<path d="M132.732 199.135L149.382 208.762V208.564C149.382 207.851 149.382 207.115 149.382 206.391L132.721 196.775C132.721 197.499 132.721 198.235 132.721 198.948L132.732 199.135Z" fill="#09A9B5"/>
<path d="M218.63 76.2457C180.389 98.3396 149.381 157.576 149.381 208.564C149.381 259.551 180.389 283.001 218.63 260.918C256.871 238.836 287.903 179.6 287.903 128.6C287.903 77.6011 256.883 54.1635 218.63 76.2457ZM271.02 134.115C269.279 175.008 244.405 223.659 215.464 242.692C186.523 261.725 164.5 243.977 166.24 203.049C167.981 162.121 192.879 113.505 221.797 94.4723C250.714 75.4396 272.773 93.1871 271.02 134.115Z" fill="#09A9B5"/>
<g opacity="0.15">
<path d="M204.457 109.86C205.018 109.241 205.567 108.61 206.14 108.002L201.758 88.759C201.174 89.2848 200.59 89.8223 200.029 90.3714L204.457 109.86Z" fill="black"/>
<path d="M217.613 76.8531V97.4866C218.291 96.9608 218.969 96.4467 219.658 95.956V75.6731L218.63 76.2456L217.613 76.8531Z" fill="black"/>
<path d="M231.692 89.2849C232.44 88.9928 233.188 88.7241 233.924 88.4904L237.429 68.8384C236.716 68.9786 235.992 69.1422 235.268 69.3174L231.692 89.2849Z" fill="black"/>
<path d="M175.237 160.287L175.973 158.347L159.382 155.134C159.148 155.789 158.914 156.443 158.692 157.097L175.237 160.287Z" fill="black"/>
<path d="M183.1 142.048L184.035 140.179L170.528 129.968L169.559 131.802L183.1 142.048Z" fill="black"/>
<path d="M285.063 104.111L270.377 117.886C270.494 118.704 270.599 119.534 270.692 120.398L285.659 106.378C285.437 105.63 285.262 104.859 285.063 104.111Z" fill="black"/>
<path d="M166.743 196.378L149.404 206.379C149.404 207.115 149.404 207.839 149.404 208.564V208.762L166.533 198.878C166.568 198.048 166.661 197.207 166.743 196.378Z" fill="black"/>
<path d="M169.546 179.436C169.721 178.7 169.908 177.964 170.084 177.217L152.126 181.177C151.986 181.902 151.845 182.638 151.717 183.362L169.546 179.436Z" fill="black"/>
<path d="M245.491 86.9246C246.204 86.983 246.893 87.0648 247.571 87.1816L254.02 68.7564C253.343 68.6162 252.665 68.4877 251.976 68.3708L245.491 86.9246Z" fill="black"/>
<path d="M265.867 102.254C266.194 102.943 266.51 103.668 266.814 104.404L278.848 88.1984C278.486 87.5441 278.1 86.9132 277.679 86.2939L265.867 102.254Z" fill="black"/>
<path d="M257.362 91.3994C257.911 91.82 258.449 92.264 258.975 92.743L268.041 75.381C267.492 74.9488 266.943 74.5398 266.37 74.1426L257.362 91.3994Z" fill="black"/>
<path d="M192.88 125.037L194.141 123.133L184.993 107.278L183.661 109.077L192.88 125.037Z" fill="black"/>
<path d="M233.165 226.907C232.616 227.55 231.997 228.169 231.494 228.776L235.876 248.078C236.46 247.552 237.044 246.98 237.605 246.43L233.165 226.907Z" fill="black"/>
<path d="M254.885 193.714C254.581 194.345 254.266 194.964 253.95 195.583L267.492 205.818L268.438 203.96L254.885 193.714Z" fill="black"/>
<path d="M245.001 211.216L243.739 213.132L252.911 229.022C253.355 228.426 253.811 227.854 254.243 227.234L245.001 211.216Z" fill="black"/>
<path d="M262.69 175.031C262.457 175.686 262.235 176.34 261.989 176.983L278.58 180.184C278.814 179.53 279.036 178.875 279.258 178.221L262.69 175.031Z" fill="black"/>
<path d="M268.169 155.648C268.018 156.384 267.866 157.12 267.69 157.845L285.566 153.931C285.695 153.195 285.812 152.47 285.94 151.746L268.169 155.648Z" fill="black"/>
<path d="M287.904 126.451L270.892 136.207C270.892 137.024 270.787 137.842 270.729 138.672L287.904 128.799V128.601C287.904 127.876 287.904 127.163 287.904 126.451Z" fill="black"/>
<path d="M219.658 260.3V239.689C218.98 240.215 218.291 240.729 217.613 241.22V261.503L218.63 260.919C218.969 260.72 219.319 260.498 219.658 260.3Z" fill="black"/>
<path d="M170.845 233.695C170.529 232.983 170.225 232.247 169.933 231.476L157.794 247.833C158.144 248.499 158.518 249.153 158.892 249.784L170.845 233.695Z" fill="black"/>
<path d="M179.174 245.204C178.637 244.76 178.111 244.293 177.597 243.79L168.483 261.222C169.021 261.666 169.57 262.087 170.131 262.496L179.174 245.204Z" fill="black"/>
<path d="M205.182 248.055C204.434 248.335 203.698 248.58 202.962 248.814L199.457 268.408C200.181 268.267 200.906 268.116 201.63 267.94L205.182 248.055Z" fill="black"/>
<path d="M191.104 250.193C190.403 250.123 189.725 250.017 189.047 249.889L182.668 268.232C183.346 268.396 184.023 268.524 184.701 268.641L191.104 250.193Z" fill="black"/>
<path d="M166.708 217.537C166.614 216.696 166.532 215.831 166.462 214.955L151.273 229.127C151.437 229.91 151.601 230.681 151.776 231.464L166.708 217.537Z" fill="black"/>
</g>
<path d="M237.325 344.738L158.18 299.043V255.778L174.841 265.394L195.684 277.439V291.857L216.505 303.868V318.297L237.325 330.308V344.738Z" fill="#263238"/>
<path d="M174.863 265.417L262.304 214.931L283.113 226.954L195.684 277.439L174.863 265.417Z" fill="#455A64"/>
<path d="M195.684 277.439V291.857L283.113 241.372V226.954L195.684 277.439Z" fill="#37474F"/>
<path d="M195.684 291.857L283.113 241.372L303.933 253.394L216.504 303.868L195.684 291.857Z" fill="#455A64"/>
<path d="M216.504 303.868V318.297L303.933 267.812V253.394L216.504 303.868Z" fill="#37474F"/>
<path d="M216.504 318.297L303.933 267.812L324.754 279.835L237.324 330.308L216.504 318.297Z" fill="#455A64"/>
<path d="M237.325 330.308V344.738L324.754 294.252V279.834L237.325 330.308Z" fill="#37474F"/>
<path d="M262.363 129.196C260.622 170.089 235.735 218.74 206.806 237.785C196.057 244.853 186.267 246.851 178.275 244.456C170.096 236.99 165.423 222.689 166.241 203.072C167.993 162.179 192.879 113.528 221.797 94.4956C232.557 87.4152 242.372 85.429 250.352 87.8359C258.577 95.3134 263.204 109.568 262.363 129.196Z" fill="#09A9B5"/>
<path opacity="0.9" d="M262.363 129.196C260.622 170.089 235.735 218.74 206.806 237.785C196.057 244.853 186.267 246.851 178.275 244.456C170.096 236.99 165.423 222.689 166.241 203.072C167.993 162.179 192.879 113.528 221.797 94.4956C232.557 87.4152 242.372 85.429 250.352 87.8359C258.577 95.3134 263.204 109.568 262.363 129.196Z" fill="#DAF5AD"/>
<path opacity="0.1" d="M206.679 216.824C197.647 217.869 189.29 222.118 183.124 228.8C179.793 232.375 177.077 236.477 175.086 240.939C176.047 242.196 177.115 243.369 178.276 244.444C179.996 244.947 181.768 245.253 183.557 245.356C184.024 244.187 184.375 242.961 184.783 241.78C186.804 236.286 190.405 231.511 195.132 228.058C199.86 224.605 205.503 222.627 211.352 222.374C215.36 222.269 219.332 222.993 223.316 223.309C224.894 221.568 226.436 219.803 227.99 217.887C220.933 217.525 213.654 216.123 206.679 216.824ZM204.95 156.992C213.128 158.055 222.055 158.511 229.205 154.328C237.302 149.584 241.146 140.179 245.048 131.662C248.682 123.752 253.647 115.398 261.581 112.337C259.933 101.272 255.984 92.9417 250.341 87.8009C246.492 86.6932 242.434 86.5209 238.505 87.2985C234.547 91.8308 231.663 97.1987 230.07 103.001C228.2 109.544 227.546 116.496 224.543 122.583C221.485 128.704 216.295 133.495 209.95 136.055C204.95 138.041 199.517 138.52 194.201 139.338C190.492 139.885 186.826 140.689 183.23 141.745C180.454 147.257 177.981 152.916 175.822 158.698C177.257 157.964 178.749 157.35 180.285 156.863C188.218 154.421 196.771 155.94 204.95 156.992ZM213.315 116.099C215.932 111.577 216.82 106.308 218.257 101.272C218.771 99.3911 219.426 97.5568 220.033 95.7224C218.164 97.0388 216.31 98.472 214.472 100.022C211.831 106.436 209.261 112.874 204.389 117.711C201.905 120.144 198.94 122.031 195.684 123.249C195.069 123.455 194.435 123.6 193.792 123.682C192.6 125.434 191.432 127.226 190.287 129.056C192.922 128.845 195.534 128.399 198.091 127.724C204.421 125.825 209.84 121.678 213.327 116.064L213.315 116.099ZM262.387 123.191C260.102 124.375 258.032 125.935 256.264 127.806C251.918 132.573 249.581 138.754 246.917 144.642C243.202 153.031 238.353 161.572 230.28 165.918C224.905 168.804 218.596 169.528 212.556 169.692C201.047 170.007 189.363 168.524 178.112 170.989C175.687 171.519 173.317 172.273 171.032 173.244C170.253 176.04 169.571 178.825 168.987 181.598C171.607 180.211 174.379 179.133 177.247 178.385C193.873 174.179 212.299 183.409 228.224 177.216C239.907 172.648 247.023 161.046 252.759 149.9C255.096 145.355 257.608 140.553 261.639 137.538C261.951 134.758 262.169 132 262.293 129.266C262.445 127.105 262.468 125.107 262.433 123.156L262.387 123.191ZM220.91 191.295C211.913 191.622 202.928 190.781 193.932 190.653C189.322 190.402 184.702 190.875 180.239 192.055C176.331 193.376 172.657 195.304 169.349 197.768C168.333 198.492 167.351 199.24 166.382 200C166.312 201.039 166.241 202.068 166.195 203.084C165.692 214.943 167.2 224.839 170.272 232.48C172.258 230.757 174.024 228.794 175.53 226.638C181.711 218.285 187.669 209.043 197.04 204.568C207.099 199.766 218.958 201.483 229.894 199.287C234.678 198.31 239.274 196.57 243.506 194.134C245.235 190.894 246.867 187.591 248.401 184.227C247.934 184.507 247.455 184.776 246.976 185.044C239.066 189.379 229.941 190.933 220.956 191.26L220.91 191.295Z" fill="black"/>
<path d="M316.102 111.384C316.102 115.356 315.355 118.885 310.494 119.738C315.471 119.948 315.822 123.243 316.102 127.846C316.266 123.278 316.698 119.948 321.208 119.738C316.558 118.967 316.102 115.356 316.102 111.384Z" fill="#09A9B5"/>
<path d="M202.7 322.871C202.7 326.844 201.952 330.372 197.092 331.225C202.069 331.435 202.42 334.73 202.7 339.333C202.864 334.753 203.296 331.435 207.806 331.225C203.132 330.442 202.7 326.844 202.7 322.871Z" fill="#09A9B5"/>
<path d="M166.166 200.472C166.166 202.213 165.838 203.744 163.712 204.117C165.885 204.211 166.049 205.671 166.166 207.623C166.236 205.625 166.423 204.117 168.397 204.117C166.352 203.779 166.166 202.213 166.166 200.472Z" fill="#09A9B5"/>
<path d="M156.608 207.307C156.608 211.268 155.849 214.797 151 215.65C155.977 215.86 156.328 219.155 156.608 223.77C156.76 219.19 157.192 215.872 161.714 215.65C157.04 214.937 156.608 211.268 156.608 207.307Z" fill="#E0E0E0"/>
<path d="M152.051 187.398C152.051 189.443 151.665 191.242 149.177 191.686C151.724 191.792 151.911 193.497 152.051 195.846C152.133 193.509 152.355 191.792 154.68 191.686C152.273 191.289 152.051 189.443 152.051 187.398Z" fill="#E0E0E0"/>
<path d="M302.607 99.4434C302.607 101.78 302.549 104 299.195 104.526C302.7 104.526 302.467 106.711 302.642 109.515C302.735 106.711 302.981 104.701 305.75 104.573C302.887 104.093 302.969 102.773 302.607 99.4434Z" fill="#E0E0E0"/>
<path d="M331.747 207.576C331.502 211.957 331.151 213.85 327.19 214.376C331.221 214.598 331.56 217.273 331.794 221.001C331.922 217.273 332.249 214.563 335.93 214.376C332.144 213.768 332.051 212.016 331.747 207.576Z" fill="#E0E0E0"/>
<path d="M186.6 322.906C186.46 325.465 186.262 326.563 183.948 326.878C186.285 327.007 186.495 328.549 186.635 330.722C186.706 328.549 186.893 326.972 189.042 326.878C186.869 326.505 186.776 325.5 186.6 322.906Z" fill="#E0E0E0"/>
<path d="M323.474 107.318C323.474 108.732 323.474 110.087 321.406 110.403C323.556 110.403 323.392 111.723 323.498 113.417C323.556 111.723 323.696 110.508 325.367 110.426C323.638 110.134 323.685 109.339 323.474 107.318Z" fill="#E0E0E0"/>
<path d="M327.88 220.312C327.88 221.714 327.88 223.069 325.812 223.384C327.95 223.384 327.786 224.716 327.891 226.41C327.95 224.716 328.102 223.489 329.772 223.419C328.043 223.116 328.09 222.321 327.88 220.312Z" fill="#E0E0E0"/>
<path d="M197.383 317.333C197.383 318.735 197.383 320.09 195.315 320.406C197.465 320.406 197.302 321.726 197.407 323.42C197.465 321.726 197.617 320.511 199.288 320.429C197.582 320.149 197.629 319.343 197.383 317.333Z" fill="#E0E0E0"/>
<path d="M491.255 286.574L528.047 265.333L583.592 297.393L610.242 282.005L554.71 249.945L572.749 239.523L543.54 222.64L525.5 233.062L493.3 214.497L466.638 229.896L498.803 248.508L430.208 288.046L451.671 300.431L624.8 346.908L628.165 344.969C629.816 338.332 631.183 331.56 632.266 324.651L491.255 286.574Z" fill="#263238"/>
<path d="M494.714 123.598L493.335 124.392V79.5034L476.674 69.8877L456.064 81.7817L473.064 17.8718L456.415 8.2561L427.755 24.8002L381.44 197.976V222.804L398.09 232.42L450.071 202.393V220.28L466.732 229.896L493.3 214.497V177.39L511.328 166.979V133.213L494.714 123.598ZM450.071 149.407L435.968 157.586L450.071 104.518V149.407Z" fill="#09A9B5"/>
<path opacity="0.3" d="M494.714 123.598L493.335 124.392V79.5034L476.674 69.8877L456.064 81.7817L473.064 17.8718L456.415 8.2561L427.755 24.8002L381.44 197.976V222.804L398.09 232.42L450.071 202.393V220.28L466.732 229.896L493.3 214.497V177.39L511.328 166.979V133.213L494.714 123.598ZM450.071 149.407L435.968 157.586L450.071 104.518V149.407Z" fill="black"/>
<path d="M493.324 143.624V79.5034L466.673 94.8909V159.023L429.87 180.264L473.064 17.8718L444.404 34.416L398.09 207.592V232.373L466.673 192.789V229.896L493.324 214.497V177.39L511.363 166.979V133.213L493.324 143.624Z" fill="#09A9B5"/>
<path opacity="0.3" d="M493.324 143.624V79.5034L466.673 94.8909V159.023L429.87 180.264L473.064 17.8718L444.404 34.416L398.09 207.592V232.373L466.673 192.789V229.896L493.324 214.497V177.39L511.363 166.979V133.213L493.324 143.624Z" fill="#222222"/>
<path d="M473.064 17.8718L456.415 8.2561L427.755 24.8002L444.404 34.4159L473.064 17.8718Z" fill="#09A9B5"/>
<path opacity="0.5" d="M473.064 17.8718L456.415 8.2561L427.755 24.8002L444.404 34.4159L473.064 17.8718Z" fill="#222222"/>
<path d="M476.674 69.8875L493.323 79.5031L466.672 94.8906L454.451 87.8336L456.064 81.7815L476.674 69.8875Z" fill="#09A9B5"/>
<path opacity="0.5" d="M476.674 69.8875L493.323 79.5031L466.672 94.8906L454.451 87.8336L456.064 81.7815L476.674 69.8875Z" fill="#222222"/>
<path d="M466.673 159.023L450.012 149.407L435.91 157.551L429.869 180.264L466.673 159.023Z" fill="#09A9B5"/>
<path opacity="0.5" d="M466.673 159.023L450.012 149.407L435.91 157.551L429.869 180.264L466.673 159.023Z" fill="#222222"/>
<path d="M511.363 133.213L494.714 123.598L493.323 124.392V143.624L511.363 133.213Z" fill="#09A9B5"/>
<path opacity="0.5" d="M493.323 143.624L511.363 133.213L494.714 123.598L493.323 124.392V143.624Z" fill="#222222"/>
<path d="M398.09 207.592L381.44 197.976L427.755 24.8L444.404 34.4157L398.09 207.592Z" fill="#09A9B5"/>
<path opacity="0.15" d="M398.09 207.592L381.44 197.976L427.755 24.8L444.404 34.4157L398.09 207.592Z" fill="black"/>
<path d="M191.597 435.615L162.353 418.732L144.325 429.142L112.183 410.589L85.5206 425.976L117.662 444.53L49.0791 484.126L70.5421 496.522L243.683 543L272.343 526.456L110.103 482.665L146.907 461.413L202.44 493.484L229.102 478.085L173.557 446.025L191.597 435.615Z" fill="#263238"/>
<path d="M113.562 319.677L112.183 320.483V275.548L95.522 265.932L74.912 277.884L91.9118 213.975L75.2625 204.359L46.6023 220.88L0.288086 394.067V418.848L16.9841 428.464L68.9182 398.484V416.36L85.5675 425.976L112.23 410.588V373.469L130.258 363.059V329.293L113.562 319.677ZM68.8715 345.486L54.7692 353.665L68.8715 300.644V345.486Z" fill="#09A9B5"/>
<path opacity="0.3" d="M113.562 319.677L112.183 320.483V275.548L95.522 265.932L74.912 277.884L91.9118 213.975L75.2625 204.359L46.6023 220.88L0.288086 394.067V418.848L16.9841 428.464L68.9182 398.484V416.36L85.5675 425.976L112.23 410.588V373.469L130.258 363.059V329.293L113.562 319.677ZM68.8715 345.486L54.7692 353.665L68.8715 300.644V345.486Z" fill="black"/>
<path d="M112.183 339.715V275.583L85.5209 290.971V355.103L48.7172 376.344L91.9236 213.952L63.2634 230.496L16.9375 403.672V428.465L85.5209 388.868V425.976L112.183 410.589V373.469L130.211 363.059V329.293L112.183 339.715Z" fill="#09A9B5"/>
<path opacity="0.3" d="M112.183 339.715V275.583L85.5209 290.971V355.103L48.7172 376.344L91.9236 213.952L63.2634 230.496L16.9375 403.672V428.465L85.5209 388.868V425.976L112.183 410.589V373.469L130.211 363.059V329.293L112.183 339.715Z" fill="#222222"/>
<path d="M91.9227 213.952L75.2617 204.336L46.6016 220.88L63.2625 230.496L91.9227 213.952Z" fill="#09A9B5"/>
<path opacity="0.5" d="M91.9227 213.952L75.2617 204.336L46.6016 220.88L63.2625 230.496L91.9227 213.952Z" fill="#222222"/>
<path d="M95.5222 265.967L112.183 275.583L85.521 290.97L73.2998 283.925L74.9122 277.873L95.5222 265.967Z" fill="#09A9B5"/>
<path opacity="0.5" d="M95.5222 265.967L112.183 275.583L85.521 290.97L73.2998 283.925L74.9122 277.873L95.5222 265.967Z" fill="#222222"/>
<path d="M85.5195 355.103L68.8702 345.487L54.768 353.63L48.7158 376.344L85.5195 355.103Z" fill="#09A9B5"/>
<path opacity="0.5" d="M85.5195 355.103L68.8702 345.487L54.768 353.63L48.7158 376.344L85.5195 355.103Z" fill="#222222"/>
<path d="M130.211 329.293L113.561 319.677L112.183 320.484V339.715L130.211 329.293Z" fill="#09A9B5"/>
<path opacity="0.5" d="M112.183 339.715L130.211 329.293L113.561 319.677L112.183 320.484V339.715Z" fill="#222222"/>
<path d="M16.9374 403.672L0.288086 394.068L46.6023 220.88L63.2633 230.496L16.9374 403.672Z" fill="#09A9B5"/>
<path opacity="0.15" d="M16.9374 403.672L0.288086 394.068L46.6023 220.88L63.2633 230.496L16.9374 403.672Z" fill="black"/>
<path d="M394.557 409.611C389.898 407.484 384.968 406.01 379.906 405.229C376.809 404.716 373.646 404.743 370.559 405.311C368.36 405.76 366.231 406.499 364.226 407.508C357.356 410.919 356.363 414.716 356.141 417.929C355.919 421.142 357.695 425.442 363.373 429.414L460.827 497.682C478.566 488.232 495.051 476.598 509.899 463.052C467.557 443.377 398.46 411.281 394.557 409.611Z" fill="#263238"/>
<path d="M425.741 265.936C431.723 267.104 434.06 267.513 436.922 272.467C439.785 277.421 444.645 295.835 445.977 299.655C447.309 303.476 447.707 304.866 447.146 309.119C446.573 313.559 443.956 321.445 442.858 325.768C442.344 327.766 442.005 329.717 441.631 331.762C441.114 333.855 440.45 335.908 439.645 337.908C439.3 338.883 438.699 339.746 437.904 340.408C437.413 340.84 436.736 340.887 436.268 341.284C435.801 341.682 435.672 342.383 435.018 342.71C434.364 343.037 433.452 342.85 432.81 343.224C432.176 343.688 431.517 344.117 430.835 344.509C430.208 344.692 429.634 345.024 429.165 345.479C428.744 345.934 428.347 346.963 427.587 346.881C426.828 346.799 426.606 345.981 426.571 345.28C426.598 343.905 427.064 342.574 427.903 341.483C428.648 340.268 429.463 339.098 430.345 337.978C431.203 336.939 431.817 335.721 432.144 334.414C432.413 333.538 432.331 332.428 431.197 332.93C429.877 333.538 428.475 334.8 426.886 334.519C425.788 334.332 425.718 333.468 426.36 332.743C427.417 331.55 428.385 330.281 429.258 328.946C430.146 327.579 430.882 326.142 431.805 324.81C432.304 324.118 432.846 323.459 433.429 322.836C435.041 321.083 434.971 318.688 435.158 316.456C435.415 313.36 435.637 305.415 435.637 305.415L428.393 287.574L425.741 265.936Z" fill="#FFBDA7"/>
<path d="M435.17 316.456C435.24 312.776 435.392 309.096 435.532 305.415C433.196 299.737 430.695 293.486 428.405 287.574C430.929 293.486 433.383 299.425 435.766 305.392C435.579 309.084 435.415 312.776 435.17 316.456Z" fill="#222222"/>
<path d="M385.35 404.493C387.406 403.769 388.937 403.699 388.913 404.715C388.635 405.968 388.191 407.178 387.593 408.314L385.957 410.569L385.175 412.788C385.175 412.788 384.216 413.957 384.158 414.074C384.1 414.191 383.784 409.926 383.784 409.926C383.784 409.926 382.627 405.019 385.35 404.493Z" fill="#263238"/>
<path d="M407.432 317.753C407.432 317.753 402.759 323.303 399.989 333.701C397.435 343.366 395.484 353.18 394.148 363.086C393.482 367.514 392.407 373.099 390.818 381.78C389.591 388.463 385.735 408.956 385.735 408.956C385.735 408.956 387.955 412.648 390.643 413.77C394.498 415.382 398.214 414.646 398.704 411.2C398.704 411.2 401.251 407.134 405.119 396.642C406.978 391.825 408.462 386.872 409.558 381.827C409.941 378.66 410.054 375.467 409.897 372.281L425.413 345.303C427.128 342.348 429.183 339.603 431.536 337.125C432.989 335.637 434.129 333.873 434.889 331.937C437.459 324.927 433.72 315.498 433.72 315.498L407.432 317.753Z" fill="#263238"/>
<path d="M394.206 363.074C391.706 378.439 388.843 393.744 385.794 409.003C388.481 393.674 391.355 378.38 394.206 363.074Z" fill="#222222"/>
<path d="M388.153 420.815L387.323 420.652C387.382 420.336 393.597 388.346 397.944 374.91C402.29 361.474 413.682 334.788 413.799 334.519L414.581 334.858C414.464 335.115 403.096 361.789 398.762 375.179C394.427 388.568 388.223 420.5 388.153 420.815Z" fill="black"/>
<path d="M427.855 326.738H402.373C401.441 329.001 400.66 331.323 400.036 333.69C397.681 342.588 395.866 351.62 394.604 360.738C395.223 364.909 395.924 369.197 396.566 372.141C398.284 379.922 399.359 385.414 400.714 388.627C402.022 391.343 403.567 393.939 405.329 396.385C407.144 391.666 408.593 386.814 409.664 381.873C410.046 378.707 410.16 375.514 410.003 372.328L425.192 345.981L426.278 341.833C430.052 335.559 429.62 330.851 427.855 326.738Z" fill="black"/>
<path d="M364.459 414.857C364.003 414.646 363.443 416.434 363.396 417.077C363.349 417.719 364.564 420.336 367.754 422.264C370.944 424.192 376.423 425.267 378.48 425.91C380.536 426.552 382.183 428.246 384.894 429.567C387.301 430.735 390.934 431.354 392.523 430.641C392.83 430.459 393.093 430.211 393.295 429.917C393.497 429.622 393.632 429.288 393.692 428.936C394.124 427.615 394.089 427.312 393.925 427.265L364.459 414.857Z" fill="#37474F"/>
<path d="M395.058 424.344C394.849 425.693 394.402 426.994 393.738 428.188C393.274 428.537 392.744 428.791 392.18 428.933C391.616 429.076 391.03 429.104 390.455 429.017C387.981 428.84 385.598 428.009 383.55 426.61C381.986 425.593 380.297 424.78 378.526 424.192C376.089 423.604 373.695 422.847 371.364 421.925C369.624 421.19 368.006 420.198 366.562 418.981C365.393 417.883 364.307 416.644 364.424 415.102C364.686 414.131 365.242 413.265 366.016 412.623C366.79 411.98 367.744 411.593 368.747 411.515C370.666 411.417 372.585 411.708 374.39 412.368C376.143 412.961 377.958 413.353 379.799 413.536C381.061 413.641 382.545 414.705 383.527 413.595C384.695 412.309 385.151 409.272 385.933 407.753C386.062 407.507 386.237 407.239 386.506 407.18C386.775 407.122 387.219 407.449 387.464 407.776C388.608 409.204 390.073 410.341 391.74 411.094C396.25 413.326 398.341 412.146 398.341 412.146L398.762 411.211C398.762 411.211 399.662 411.714 398.517 413.817C397.551 415.546 396.738 417.356 396.087 419.226C395.518 420.879 395.172 422.6 395.058 424.344Z" fill="#455A64"/>
<path d="M364.459 415.102C365.873 409.868 371.808 411.27 375.64 412.59C376.998 413.068 378.405 413.394 379.835 413.56C378.39 413.495 376.96 413.24 375.582 412.8C371.796 411.632 366.106 410.136 364.459 415.137V415.102Z" fill="#222222"/>
<path d="M375.232 412.602C373.304 412.777 372.778 415.896 372.778 415.896C374.505 416.824 376.385 417.433 378.328 417.696C379.679 417.93 381.069 417.651 382.225 416.914C383.381 416.177 384.221 415.035 384.579 413.712C385.397 411.106 384.649 407.461 384.497 406.281C384.408 405.875 384.481 405.451 384.699 405.098C384.917 404.745 385.263 404.49 385.665 404.388C385.335 404.419 385.014 404.517 384.723 404.678C384.432 404.838 384.177 405.056 383.974 405.32C383.772 405.583 383.625 405.885 383.544 406.207C383.463 406.529 383.45 406.864 383.504 407.192C383.562 408.594 383.504 411.363 382.908 412.286C382.312 413.209 379.333 413.618 375.232 412.602Z" fill="#455A64"/>
<path d="M423.532 317.753C426.338 321.07 427.98 325.215 428.205 329.554C428.398 333.769 427.076 337.913 424.478 341.238C423.508 355.445 420.704 382.797 420.704 382.797C424.455 386.652 425.378 389.152 427.598 396.069C428.918 400.275 433.872 413.793 435.099 417.556C428.532 418.362 424.957 424.893 424.957 424.893C424.957 424.893 413.39 407.811 407.829 397.763C403.705 390.333 401.8 387.622 400.573 383.229C399.054 377.749 398.646 374.922 397.29 365.703C395.935 356.485 394.638 344.754 393.972 335.664C393.306 326.574 392.804 316.97 392.804 316.97L423.532 317.753Z" fill="#263238"/>
<path d="M425.004 424.858C418.263 414.927 411.65 404.879 405.854 394.363C403.949 391.297 402.311 388.072 400.959 384.724C399.878 381.284 399.05 377.77 398.482 374.209C395.5 355.226 393.612 336.088 392.827 316.889L393.809 331.26C394.697 345.642 396.484 359.955 398.774 374.162C399.604 378.836 400.468 383.661 402.595 387.961C409.415 400.65 416.895 412.974 425.004 424.881V424.858Z" fill="#222222"/>
<path d="M408.659 387.225C405.259 378.555 401.181 331.365 401.392 315.054H400.539C400.469 320.511 400.877 329.402 401.578 339.158C398.809 337.756 397.022 335.185 397.022 322.263H396.169C396.169 335.256 397.863 338.399 401.649 340.139C403.074 359.464 405.621 381.815 407.864 387.552C411.194 396.034 428.568 424.694 428.731 424.94L429.468 424.496C429.292 424.239 411.965 395.649 408.659 387.225Z" fill="black"/>
<path d="M424.048 423.409C423.008 424.881 421.828 425.921 424.784 427.884C427.121 429.391 427.203 430.606 427.915 432.219C428.379 433.791 428.569 435.431 428.476 437.067C428.476 437.067 432.402 431.144 431.257 427.323C430.112 423.503 424.048 423.409 424.048 423.409Z" fill="#455A64"/>
<path d="M436.631 420.021C437.737 421.187 439.037 422.152 440.475 422.872C441.468 423.491 442.496 424.04 442.811 425.208C442.811 425.337 442.227 426.038 442.239 426.166C442.29 426.724 442.27 427.285 442.181 427.837C441.959 429.765 440.907 431.19 440.673 433.107C440.597 433.872 440.46 434.63 440.264 435.373C440.096 436.278 440.022 437.198 440.042 438.119C439.984 439.077 439.914 440.035 439.867 440.993C439.815 441.4 439.815 441.813 439.867 442.22C439.949 442.629 433.429 445.912 430.801 447.174C430.645 447.249 430.485 447.315 430.322 447.372C428.718 447.809 427.009 447.643 425.52 446.905C420.285 445.001 420.612 443.108 420.612 443.108C420.639 442.324 420.887 441.563 421.327 440.914C421.768 440.265 422.383 439.754 423.101 439.439C423.42 439.254 423.756 439.101 424.106 438.983C425.408 438.5 426.828 438.431 428.172 438.785C428.437 438.007 428.56 437.188 428.534 436.366C428.641 435.139 428.661 433.905 428.592 432.674C428.36 431.284 427.822 429.963 427.015 428.807C425.905 427.276 424.678 425.302 423.942 424.227C423.206 423.152 423.008 420.558 427.366 417.439C431.548 414.459 434.61 415.102 435.205 416.329C435.537 417.61 436.015 418.849 436.631 420.021Z" fill="#455A64"/>
<path d="M420.543 443.12C420.543 439.509 425.146 437.698 428.149 438.762C425.076 438.189 420.987 439.615 420.543 443.12Z" fill="#222222"/>
<path opacity="0.1" d="M425.378 440.654C425.727 439.763 426.387 439.029 427.236 438.586C427.543 438.622 427.848 438.68 428.147 438.762C427.621 439.264 425.74 440.012 425.378 440.654Z" fill="black"/>
<path d="M443.418 426.342C444.587 426.832 443.617 428.679 442.25 431.541C441.015 433.656 440.521 436.124 440.848 438.551C441.128 441.087 440.532 442.325 439.434 443.225C438.336 444.124 430.181 447.688 430.181 447.688C432.12 445.239 433.243 442.244 433.394 439.124C433.838 433.539 434.375 429.952 437.156 427.51C438.02 426.811 439.046 426.337 440.139 426.133C441.233 425.929 442.36 426.001 443.418 426.342Z" fill="black"/>
<path d="M420.542 443.108C420.67 444.206 423.79 446.426 427.47 446.379C431.151 446.333 431.466 445.55 432.039 441.238C432.611 436.927 433.008 430.933 434.878 428.386C436.747 425.839 439.201 424.297 442.788 425.232C443.197 425.43 444.307 426.54 443.898 427.569C443.898 427.569 443.898 426.751 442.425 426.318C441.164 425.956 439.656 425.991 437.553 427.814C435.088 429.929 434.539 434.918 434.259 439.194C433.978 443.47 432.646 447.571 429.106 447.957C427.578 448.164 426.023 448.035 424.55 447.578C423.077 447.122 421.721 446.35 420.577 445.316C420.355 444.598 420.343 443.832 420.542 443.108Z" fill="#37474F"/>
<path d="M399.441 239.11C398.964 238.439 398.67 237.655 398.588 236.836C398.506 236.016 398.639 235.189 398.973 234.437C399.569 232.918 400.808 231.317 404.418 229.448C408.718 227.228 420.518 225.639 426.36 233.362C427.201 234.53 415.588 256.32 416.16 260.842C413.146 257.676 403.203 246.541 403.203 246.541C400.866 245.536 399.417 244.683 398.915 242.464C398.733 241.318 398.917 240.145 399.441 239.11Z" fill="#263238"/>
<path d="M403.203 246.483C399.698 245.56 397.466 242.487 399.441 239.075C397.945 242.58 399.943 245.127 403.203 246.483Z" fill="#222222"/>
<path d="M399.44 239.11C397.968 237.498 398.33 234.904 399.44 233.175C400.729 231.497 402.449 230.201 404.417 229.425C403.519 229.941 402.653 230.511 401.823 231.13C399.381 232.825 397.559 236.388 399.487 239.11H399.44Z" fill="#222222"/>
<path d="M401.216 245.314C401.216 245.314 398.027 250.513 398.389 250.946C399.122 251.529 399.904 252.049 400.726 252.5L401.216 245.314Z" fill="#F0997A"/>
<path d="M401.216 245.314C400.421 246.985 399.463 248.562 398.681 250.221C398.575 250.49 398.353 250.806 398.505 250.992C398.706 251.224 398.942 251.421 399.206 251.577C398.891 251.401 398.365 251.261 398.295 250.841C398.938 248.842 399.927 246.971 401.216 245.314Z" fill="#222222"/>
<path d="M405.165 235.804C403.027 236.821 401.181 238.456 400.492 243.141C400.317 244.368 401.275 246.039 400.842 247.663C398.985 254.673 401.193 260.515 402.548 261.742C403.459 262.607 408.25 262.992 410.727 262.291C413.87 261.415 420.705 258.33 423.964 253.411C427.797 247.57 428.638 239.858 424.42 236.739C418.473 232.346 407.444 234.729 405.165 235.804Z" fill="#FFBDA7"/>
<path d="M400.515 243.141C400.515 244.73 401.45 246.284 400.913 247.908C399.919 252.43 399.849 257.804 402.572 261.742C399.581 257.933 399.581 252.395 400.726 247.861C401.263 246.319 400.375 244.742 400.515 243.188V243.141Z" fill="#222222"/>
<path d="M421.511 256.718L422.749 265.329C424.677 265.738 424.852 268.016 423.917 269.733L424.373 272.164L411.194 274.524L409.722 262.478L421.511 256.718Z" fill="#FFBDA7"/>
<path d="M402.829 261.917C403.997 262.536 406.393 262.992 409.734 262.525L409.536 260.819C408.476 261.217 407.386 261.529 406.276 261.754C405.141 261.978 403.98 262.033 402.829 261.917Z" fill="#F0997A"/>
<path d="M402.011 238.304C401.922 239.315 402.187 240.326 402.76 241.163C403.333 242.001 404.179 242.613 405.154 242.896C404.634 244.015 404.439 245.258 404.593 246.483C404.637 247.206 404.887 247.902 405.313 248.488C405.74 249.074 406.325 249.525 407 249.789C407.923 250.105 408.168 249.696 408.531 248.96C408.998 247.92 409.594 246.331 411.825 246.623C414.384 246.974 415.062 250.829 413.566 253.353C413.279 253.886 412.866 254.342 412.363 254.68C411.86 255.018 411.283 255.228 410.68 255.292C410.349 255.287 410.022 255.212 409.722 255.071C409.422 254.93 409.155 254.727 408.939 254.475C408.939 254.475 409.103 257.839 413.438 259.837C416.149 261.279 419.29 261.694 422.282 261.006C424.297 258.768 426.196 256.428 427.972 253.995C432.646 247.172 433.639 234.682 425.635 232.439C425.25 232.334 417.971 231.271 414.419 232.089C403.471 234.425 402.034 237.778 402.011 238.304Z" fill="#263238"/>
<path d="M421.768 231.563C420.8 232.26 420.135 233.301 419.91 234.472C419.81 235.056 419.865 235.656 420.07 236.212C420.275 236.767 420.623 237.259 421.078 237.638C423.415 239.473 427.06 237.335 427.493 234.624C427.983 231.423 424.128 229.81 421.768 231.563Z" fill="#09A9B5"/>
<path d="M423.672 232.579C421.277 234.051 419.781 237.521 421.055 240.022C421.406 240.699 421.896 241.307 422.223 242.02C423.146 244.298 421.803 246.81 421.511 249.252C421.311 251.19 421.646 253.146 422.48 254.907C423.275 256.204 425.027 256.531 425.728 257.886C426.208 258.821 425.88 259.966 426.067 261.006C426.476 263.237 429.117 264.312 431.395 264.359C432.358 264.444 433.328 264.317 434.237 263.985C435.146 263.654 435.97 263.128 436.653 262.443C437.175 261.631 437.745 260.851 438.359 260.106C439.714 258.832 441.864 258.938 443.359 257.769C443.912 257.281 444.346 256.672 444.625 255.989C444.905 255.306 445.023 254.568 444.972 253.832C444.834 252.357 444.438 250.917 443.803 249.579C442.833 247.242 443.605 245.735 444.095 243.363C444.325 242.082 444.113 240.761 443.493 239.617C442.873 238.472 441.882 237.573 440.684 237.066C439.036 236.411 437.027 236.517 435.695 235.336C435.063 234.589 434.47 233.809 433.919 233C431.418 230.254 426.488 230.862 423.672 232.579Z" fill="#263238"/>
<path d="M433.077 272.374C432.552 270.946 431.72 269.65 430.64 268.578C429.56 267.506 428.258 266.684 426.826 266.17C425.658 265.819 422.749 265.329 422.749 265.329C423.415 266.847 422.293 267.852 420.319 268.308C417.783 268.904 413.916 268.962 411.287 267.221L410.212 266.555C407.344 267.261 404.512 268.111 401.73 269.102C401.157 269.371 397.991 270.434 393.014 281.616C390.887 286.394 391.518 291.243 395.432 294.69C395.654 297.716 393.703 304.527 393.703 304.527C392.711 310.212 392.483 316.004 393.026 321.749C393.026 321.749 395.362 327.942 413.893 327.872C428.229 327.872 435.437 320.861 435.437 320.861C435.262 317.356 429.747 305.053 430.297 300.917C431.149 294.888 436.676 284.081 433.077 272.374Z" fill="#09A9B5"/>
<path d="M401.73 269.102C405.504 272.175 405.796 276.393 405.235 282.083C404.675 287.773 398.961 305.555 397.793 309.423C396.625 313.29 394.954 314.634 392.01 317.765C389.065 320.896 382.184 325.873 378.76 328.724C377.171 330.045 375.757 331.423 374.25 332.86C372.604 334.249 370.862 335.522 369.039 336.669C368.187 337.252 367.195 337.599 366.165 337.674C365.511 337.674 364.938 337.37 364.319 337.417C363.7 337.464 363.151 337.954 362.473 337.838C361.795 337.721 361.118 337.031 360.382 336.95C359.601 336.961 358.821 336.925 358.045 336.844C357.43 336.616 356.766 336.548 356.117 336.646C355.51 336.763 354.587 337.359 354.014 336.856C353.442 336.354 353.757 335.548 354.131 334.952C354.957 333.837 356.121 333.017 357.449 332.615C358.764 332.072 360.11 331.607 361.48 331.225C362.769 330.879 363.966 330.252 364.985 329.39C365.71 328.841 366.294 327.883 365.09 327.638C363.665 327.346 361.784 327.544 360.65 326.388C359.879 325.593 360.335 324.857 361.281 324.647C362.837 324.303 364.364 323.842 365.85 323.268C367.369 322.684 368.806 321.948 370.336 321.41C371.152 321.147 371.983 320.932 372.825 320.768C375.162 320.289 376.505 318.314 377.954 316.62C379.987 314.283 383.48 309.82 385.852 306.619L389.439 289.268C391.706 279.851 392.5 271.953 401.73 269.102Z" fill="#FFBDA7"/>
<path d="M405.212 282.083C404.301 287.224 403.048 292.298 401.462 297.272C401.345 297.681 401.216 298.078 401.1 298.44C399.663 303.312 398.272 307.705 397.758 309.411C396.707 312.916 395.223 314.365 392.757 316.935L391.975 317.753C388.902 321.013 382.149 325.862 378.725 328.724C377.148 330.045 375.723 331.412 374.227 332.849C372.577 334.241 370.832 335.518 369.005 336.669C368.151 337.248 367.159 337.591 366.13 337.662C365.476 337.721 364.904 337.359 364.284 337.405C363.665 337.452 363.116 337.943 362.438 337.826C361.761 337.709 361.083 337.02 360.347 336.95C359.566 336.957 358.786 336.918 358.01 336.833C357.393 336.61 356.731 336.542 356.082 336.634C355.895 336.634 355.673 336.763 355.44 336.845L355.148 336.938C355.016 336.987 354.878 337.018 354.739 337.031C354.608 337.058 354.473 337.054 354.344 337.022C354.214 336.99 354.094 336.929 353.991 336.845C353.348 336.284 353.722 335.548 354.096 334.952C354.922 333.836 356.086 333.017 357.414 332.615C358.729 332.068 360.075 331.6 361.445 331.213C362.734 330.867 363.931 330.241 364.95 329.379C365.675 328.83 366.259 327.883 365.055 327.626C363.63 327.334 361.749 327.533 360.627 326.388C359.844 325.581 360.3 324.845 361.247 324.635C362.802 324.293 364.33 323.832 365.815 323.256C367.334 322.672 368.782 321.936 370.301 321.41C371.115 321.139 371.947 320.924 372.79 320.768C375.127 320.289 376.47 318.302 377.919 316.62C379.952 314.283 383.446 309.808 385.829 306.607L389.404 289.257C391.671 279.793 392.5 271.895 401.696 269.056C402.645 269.825 403.438 270.769 404.032 271.836C405.598 274.594 405.633 277.947 405.212 282.083Z" fill="#FFBDA7"/>
<path d="M353.944 336.857C353.726 336.636 353.596 336.343 353.579 336.033C353.562 335.723 353.658 335.418 353.85 335.174C354.727 333.48 356.631 332.756 358.314 332.183C359.432 331.657 360.608 331.265 361.819 331.015C362.967 330.66 364.046 330.11 365.008 329.391C364.098 330.208 363.033 330.836 361.877 331.237C359.544 331.809 357.302 332.706 355.217 333.901C354.446 334.52 353.103 335.817 353.991 336.81L353.944 336.857Z" fill="#222222"/>
<path d="M360.651 326.434C359.202 324.775 362.006 324.565 363.058 324.214C365.839 323.502 368.292 321.971 371.026 321.2C372.428 320.985 373.769 320.48 374.964 319.716C376.868 318.209 378.913 315.183 380.49 313.278L385.748 306.584C386.916 300.742 388.774 291.64 390.164 285.705C391.648 278.695 393.926 271.205 401.731 269.102C394.043 271.287 391.8 278.73 390.375 285.752C388.972 291.78 387.29 300.602 385.97 306.782L380.665 313.465C379.041 315.381 377.043 318.349 375.069 319.903C373.858 320.669 372.501 321.175 371.085 321.387C368.351 322.146 365.862 323.642 363.081 324.308C362.018 324.647 359.237 324.799 360.651 326.469V326.434Z" fill="#222222"/>
<path opacity="0.3" d="M428.148 345.105C428.148 345.559 428.273 346.004 428.51 346.39C428.755 346.086 428.966 345.713 429.176 345.479C429.646 345.025 430.219 344.692 430.847 344.509C431.528 344.118 432.188 343.689 432.821 343.224C433.452 342.85 434.294 343.072 435.03 342.71C435.766 342.348 435.789 341.705 436.28 341.284C436.771 340.864 437.448 340.84 437.915 340.408C438.71 339.746 439.312 338.883 439.656 337.908C440.462 335.908 441.126 333.855 441.643 331.762C442.016 329.718 442.355 327.766 442.869 325.768C443.968 321.445 446.585 313.559 447.157 309.119C447.706 304.866 447.309 303.464 445.989 299.655C444.669 295.846 439.797 277.456 436.934 272.467C434.223 267.794 431.968 267.163 426.641 266.111L426.325 266.03L425.788 265.913L425.367 265.819L424.83 265.714L424.514 265.656L423.743 265.504L423.159 265.399H423.007H422.762L422.142 261.087H422.294C423.241 259.919 424.281 258.809 425.367 257.501C425.5 257.654 425.614 257.822 425.706 258.003C426.197 258.938 425.858 260.071 426.045 261.111C426.454 263.354 429.094 264.417 431.373 264.476C432.336 264.556 433.306 264.425 434.214 264.092C435.122 263.759 435.947 263.232 436.63 262.548C437.157 261.739 437.726 260.959 438.336 260.211C439.691 258.938 441.841 259.043 443.348 257.874C443.9 257.383 444.332 256.771 444.61 256.087C444.887 255.402 445.003 254.662 444.949 253.925C444.817 252.449 444.421 251.009 443.781 249.672C442.811 247.336 443.582 245.829 444.073 243.468C444.304 242.187 444.094 240.865 443.476 239.719C442.859 238.573 441.87 237.67 440.673 237.159C439.014 236.505 437.004 236.622 435.672 235.43C435.044 234.682 434.455 233.902 433.908 233.093C432.039 231.049 428.826 230.873 426.138 231.621C425.474 231.161 424.679 230.927 423.872 230.955C420.226 228.128 415.471 227.45 411.393 227.777C409.859 228.422 408.472 229.372 407.316 230.57C403.647 234.203 401.474 239.543 402.432 244.59C402.619 245.536 402.911 246.448 403.063 247.394C403.449 249.813 402.911 252.278 402.923 254.732C402.934 257.185 403.706 259.896 405.832 261.099C407.444 261.999 409.419 261.824 411.253 262.057C414.268 262.443 413.917 264.3 414.034 266.859C414.085 267.251 414.053 267.649 413.941 268.028C413.894 268.164 413.823 268.291 413.73 268.401C412.947 269.371 410.728 269.757 409.746 270.084C407.801 270.555 405.901 271.196 404.068 272C403.226 272.427 402.497 273.048 401.941 273.811C399.71 276.942 398.763 280.669 397.817 284.326C396.941 287.715 396.018 291.103 395.048 294.468C394.176 297.521 393.264 300.559 392.314 303.581C391.575 306.331 390.466 308.968 389.019 311.421C387.208 314.19 384.614 316.34 382.278 318.7C376.985 324.051 372.557 330.898 365.476 333.468C362.754 334.449 359.833 334.718 357.041 335.466C356.071 335.723 354.973 336.237 354.704 337.137C354.844 337.124 354.981 337.092 355.113 337.043L355.405 336.95C355.639 336.868 355.861 336.786 356.048 336.739C356.697 336.647 357.359 336.715 357.976 336.938C358.752 337.023 359.532 337.062 360.312 337.055C361.048 337.125 361.597 337.803 362.404 337.931C363.21 338.06 363.572 337.557 364.25 337.511C364.927 337.464 365.418 337.826 366.096 337.768C367.125 337.696 368.116 337.353 368.97 336.775C370.797 335.623 372.542 334.347 374.193 332.954C375.688 331.517 377.113 330.15 378.691 328.83C382.114 325.967 388.867 321.118 391.94 317.859L392.723 317.041C395.176 314.482 396.66 313.045 397.712 309.528C398.226 307.822 399.616 303.429 401.053 298.557L401.416 297.389C401.955 298.046 402.237 298.876 402.21 299.725C402.642 305.404 403.998 311.152 404.921 316.807C405.575 320.838 406.241 324.869 406.545 328.935C406.778 331.879 406.813 334.777 406.86 337.768L407.141 358.798C407.141 359.967 407.141 361.135 407.199 362.374C407.214 365.683 407.441 368.989 407.877 372.27C408.258 375.161 408.887 378.015 409.758 380.799C409.968 381.476 410.19 382.154 410.435 382.832C412.854 389.55 416.651 395.684 420.308 401.736C424.018 408.203 427.346 414.882 430.274 421.738C430.874 422.938 431.314 424.21 431.583 425.524C431.957 427.791 431.338 430.092 431.162 432.382C430.987 434.672 431.244 436.869 431.162 439.112C431.213 441.37 430.559 443.587 429.293 445.456C428.38 446.633 427.115 447.489 425.683 447.898C426.805 448.094 427.95 448.129 429.083 448.003C429.736 447.943 430.365 447.727 430.917 447.373C433.808 446.153 436.632 444.78 439.376 443.26C440.474 442.384 441.07 441.133 440.801 438.586C440.464 436.16 440.954 433.69 442.192 431.576C442.941 430.292 443.515 428.912 443.898 427.475C444.19 426.482 443.161 425.454 442.729 425.255C442.437 424.087 441.409 423.526 440.392 422.919C438.959 422.199 437.662 421.234 436.56 420.068C435.928 418.892 435.437 417.644 435.1 416.352C434.95 416.068 434.718 415.836 434.434 415.686C432.634 410.51 428.72 399.75 427.564 396.093C425.391 389.164 424.421 386.664 420.67 382.808C420.67 382.808 422.738 362.619 423.942 347.932L425.391 345.397C425.542 345.128 425.694 344.871 425.858 344.614C427.48 341.97 429.375 339.502 431.513 337.254C431.723 337.032 431.933 336.775 432.144 336.529C431.828 337.055 431.525 337.581 431.174 338.095C429.784 340.221 428.043 342.5 428.148 345.105ZM435.298 321.013L435.439 320.885C435.368 320.125 435.223 319.373 435.006 318.641C434.738 317.648 434.364 316.468 433.955 315.195C433.826 314.797 433.686 314.389 433.546 314.026C433.067 312.601 432.553 311.082 432.085 309.61C431.933 309.154 431.793 308.699 431.665 308.255C431.536 307.811 431.361 307.273 431.232 306.806C431.104 306.338 431.046 306.14 430.964 305.813C430.964 305.708 430.905 305.591 430.882 305.486C430.859 305.38 430.777 305.053 430.73 304.855C430.637 304.469 430.555 304.107 430.496 303.756L430.426 303.371C430.421 303.281 430.421 303.192 430.426 303.102C430.392 302.932 430.369 302.761 430.356 302.588V302.237C430.345 302.027 430.345 301.817 430.356 301.607C430.343 301.404 430.343 301.201 430.356 300.999C430.672 299.185 431.105 297.394 431.653 295.636C432.027 294.281 432.448 292.832 432.821 291.29C433.931 293.358 435.006 295.426 436.081 297.506C437.005 299.15 437.786 300.87 438.418 302.646C439.703 306.689 439.388 311.07 438.897 315.288C438.384 320.099 437.318 324.835 435.719 329.402C436.061 326.602 435.919 323.765 435.298 321.013Z" fill="black"/>
</svg>
