<svg width="24" height="24" viewBox="0 0 24 24" fill="none" xmlns="http://www.w3.org/2000/svg">
<g id="Group">
<path id="Vector" d="M13.414 11.9938L23.7072 1.7006C24.0909 1.30337 24.0799 0.670266 23.6827 0.286587C23.2952 -0.0877165 22.6807 -0.0877165 22.2932 0.286587L12 10.5798L1.7068 0.286587C1.30952 -0.0970917 0.676465 -0.0860758 0.292786 0.31115C-0.081517 0.698672 -0.081517 1.31307 0.292786 1.7006L10.586 11.9938L0.292786 22.287C-0.0975954 22.6775 -0.0975954 23.3105 0.292786 23.701C0.683309 24.0913 1.31632 24.0913 1.7068 23.701L12 13.4078L22.2932 23.701C22.6837 24.0913 23.3167 24.0913 23.7072 23.701C24.0975 23.3104 24.0975 22.6774 23.7072 22.287L13.414 11.9938Z" fill="white"/>
</g>
</svg>
