<svg width="273" height="442" viewBox="0 0 273 442" fill="none" xmlns="http://www.w3.org/2000/svg">
<g opacity="0.3" clip-path="url(#clip0_2217_3706)">
<path fill-rule="evenodd" clip-rule="evenodd" d="M143.928 173.706C135.251 183.889 122.964 193.381 109.282 202.189C76.456 223.321 35.6053 240.459 16.2723 253.208C4.82697 260.758 -5.58623 270.267 -15.0571 280.857C-29.0206 296.451 -40.9186 314.41 -51.026 331.917C-51.4718 332.689 -51.2181 333.67 -50.4349 334.123C-49.6657 334.567 -48.6745 334.304 -48.2288 333.532C-38.2287 316.211 -26.4585 298.441 -12.6608 283.005C-3.36911 272.628 6.84086 263.31 18.0532 255.905C37.3689 243.154 78.2132 226.027 111.033 204.906C125.006 195.917 137.519 186.194 146.39 175.804C146.967 175.127 146.885 174.106 146.212 173.529C145.523 172.945 144.506 173.027 143.928 173.706Z" fill="#CC7028"/>
<path fill-rule="evenodd" clip-rule="evenodd" d="M95.8301 109.499C79.2401 126.251 66.8604 148.823 57.9565 170.544C44.4876 203.369 38.9466 234.22 38.6136 239.9C38.5512 240.783 39.2428 241.556 40.1276 241.606C41.0124 241.656 41.7773 240.977 41.8406 240.092C42.1636 234.494 47.6759 204.113 60.9424 171.768C69.6995 150.431 81.8267 128.231 98.1201 111.767C98.7471 111.133 98.7412 110.109 98.1129 109.486C97.4707 108.854 96.4571 108.865 95.8301 109.499Z" fill="#CC7028"/>
<path fill-rule="evenodd" clip-rule="evenodd" d="M92.4659 262.227C82.0596 263.616 59.041 271.735 35.7483 273.739C22.7178 274.861 9.59812 274.071 -1.3401 268.953C-2.14811 268.576 -3.11325 268.923 -3.50143 269.725C-3.87482 270.533 -3.51883 271.499 -2.71163 271.878C8.71155 277.222 22.4152 278.131 36.0325 276.961C59.3849 274.951 82.4647 266.823 92.8939 265.426C93.7814 265.31 94.4005 264.496 94.2779 263.61C94.1552 262.725 93.3394 262.103 92.4659 262.227Z" fill="#CC7028"/>
<path fill-rule="evenodd" clip-rule="evenodd" d="M-14.0581 154.028C-24.1862 177.061 -29.5348 202.766 -31.9979 226.154C-35.0765 255.324 -33.6503 280.89 -31.5053 293.131C-30.8198 297.079 -29.9835 299.733 -29.2588 300.836C-29.0069 301.207 -28.629 301.457 -28.2066 301.533C-27.7703 301.617 -27.3232 301.52 -26.9707 301.265C-23.995 299.147 -18.2079 298.458 -11.1814 298.142C0.954723 297.6 16.6468 298.425 28.9968 296.898C34.6577 296.202 39.6249 294.995 43.324 293.013C44.1083 292.592 44.3967 291.607 43.9735 290.822C43.5495 290.039 42.5644 289.742 41.7801 290.164C38.3926 291.994 33.8091 293.053 28.6071 293.697C16.3365 295.215 0.728767 294.374 -11.3312 294.913C-17.9943 295.214 -23.6111 295.995 -27.1751 297.679C-27.9609 295.39 -28.7 291.114 -29.3185 285.338C-30.7811 271.818 -31.3074 250.378 -28.782 226.495C-26.3516 203.422 -21.1017 178.05 -11.0996 155.331C-10.7402 154.515 -11.1049 153.564 -11.9226 153.204C-12.7403 152.844 -13.6987 153.212 -14.0581 154.028Z" fill="#CC7028"/>
<path fill-rule="evenodd" clip-rule="evenodd" d="M95.012 214.437C100.689 213.26 106.703 214.44 112.937 216.303C121.783 218.941 131.072 222.975 140.488 224.333C147.389 225.333 154.355 224.928 161.318 221.686C162.116 221.304 162.466 220.343 162.092 219.537C161.719 218.731 160.748 218.377 159.949 218.759C153.599 221.715 147.251 222.052 140.954 221.137C131.678 219.793 122.567 215.806 113.851 213.202C107.089 211.187 100.54 209.998 94.3589 211.272C93.4891 211.454 92.922 212.308 93.0928 213.174C93.2768 214.051 94.1282 214.611 95.012 214.437Z" fill="#CC7028"/>
<path fill-rule="evenodd" clip-rule="evenodd" d="M-29.249 299.042C-29.6858 299.701 -29.5952 300.578 -29.0142 301.122C-24.4122 305.458 -13.9019 313.126 2.63065 311.881C14.469 310.982 29.4889 305.477 47.6776 290.576C48.2683 290.102 48.4434 289.282 48.1054 288.607C47.7535 287.925 47.0023 287.579 46.2643 287.759C40.824 289.107 33.2425 288.446 24.9111 287.599C14.0587 286.499 1.98921 285.052 -8.41506 286.794C-16.9017 288.218 -24.3183 291.729 -29.249 299.042ZM-25.7583 299.714C-21.3505 293.953 -15.0278 291.174 -7.88555 289.979C2.25048 288.282 14.0139 289.742 24.5852 290.812C30.594 291.419 36.2456 291.901 41.0522 291.683C25.6236 303.322 12.7577 307.874 2.38419 308.658C-11.7137 309.723 -21.0734 303.777 -25.7583 299.714Z" fill="#CC7028"/>
<path fill-rule="evenodd" clip-rule="evenodd" d="M93.7722 211.513C93.159 211.93 92.9115 212.714 93.1636 213.407C93.8041 215.14 95.6591 217.483 98.5268 219.913C104.576 225.035 115.24 230.823 127.068 232.559C139.17 234.337 152.468 231.911 163.382 220.405C163.87 219.881 163.967 219.1 163.599 218.477C163.246 217.861 162.513 217.55 161.816 217.722C156.763 218.98 151.752 217.033 146.385 214.379C139.117 210.785 131.275 205.859 122.12 204.307C113.896 202.917 104.608 204.179 93.7722 211.513ZM96.779 213.412C106.218 207.366 114.331 206.266 121.586 207.493C130.403 208.985 137.934 213.802 144.955 217.276C149.351 219.448 153.568 221.091 157.732 221.307C148.352 229.222 137.503 230.828 127.534 229.361C116.377 227.723 106.317 222.279 100.606 217.441C98.8781 215.977 97.5494 214.597 96.779 213.412Z" fill="#CC7028"/>
<path fill-rule="evenodd" clip-rule="evenodd" d="M-32.8152 240.167C-32.9375 240.637 -32.8375 241.142 -32.5576 241.529C-32.2645 241.926 -31.8097 242.172 -31.3346 242.189C-22.0031 242.661 -10.9213 242.265 -0.820926 231.748C6.64141 223.99 13.604 210.574 18.7965 187.498C18.9511 186.778 18.6102 186.044 17.9639 185.71C17.3184 185.374 16.5114 185.513 16.027 186.061C4.78155 198.465 -8.13703 203.786 -18.2497 213.905C-24.4278 220.084 -29.606 227.987 -32.8152 240.167ZM-29.1492 239.05C-26.1033 228.638 -21.4571 221.689 -15.9687 216.188C-7.0264 207.256 4.06525 202.031 14.2934 192.422C9.47357 211.268 3.40759 222.679 -3.14759 229.511C-11.6955 238.406 -21.0347 239.304 -29.1492 239.05Z" fill="#CC7028"/>
<path fill-rule="evenodd" clip-rule="evenodd" d="M54.6891 182.179C54.4613 182.671 54.4863 183.241 54.7603 183.703C55.0342 184.165 55.5322 184.466 56.0613 184.486C65.7894 184.981 81.9753 185.015 94.9822 175.245C103.597 168.754 110.873 157.961 113.857 140.034C113.98 139.335 113.619 138.636 112.98 138.323C112.34 138.01 111.567 138.153 111.079 138.675C104.479 145.811 97.4486 149.041 90.4382 151.849C82.6262 154.979 74.867 157.631 67.6698 164.056C63.0562 168.171 58.6689 173.832 54.6891 182.179ZM58.6997 181.369C62.1501 174.682 65.8935 169.975 69.8218 166.466C76.7092 160.318 84.1636 157.84 91.6368 154.844C97.7265 152.404 103.819 149.635 109.671 144.538C106.46 158.433 100.301 167.196 93.0411 172.664C81.7872 181.11 67.9923 181.682 58.6997 181.369Z" fill="#CC7028"/>
<path fill-rule="evenodd" clip-rule="evenodd" d="M92.3252 264.634C92.9608 265.761 94.1888 266.541 95.9102 266.855C97.8553 267.2 100.542 266.939 103.37 266.24C106.88 265.361 110.622 263.822 113.299 262.124C115.088 260.996 116.429 259.771 117.083 258.638C118.395 256.365 117.983 253.237 116.481 250.283C115.225 247.807 113.26 245.46 111.34 243.973C110.091 243.004 108.837 242.397 107.778 242.228C106.258 241.986 104.589 242.423 102.917 243.446C100.525 244.907 98.0695 247.61 96.0912 250.649C94.1429 253.636 92.6491 256.934 92.0368 259.578C91.5489 261.715 91.688 263.509 92.3252 264.634ZM95.1315 263.035C94.7769 262.422 94.9254 261.454 95.1829 260.297C95.7158 257.953 97.072 255.055 98.7997 252.418C100.237 250.219 101.929 248.194 103.655 246.852C104.904 245.883 106.133 245.239 107.262 245.415C107.791 245.501 108.388 245.825 108.997 246.255C110.337 247.196 111.715 248.685 112.803 250.354C113.689 251.726 114.375 253.218 114.592 254.619C114.735 255.502 114.685 256.332 114.286 257.023C113.902 257.689 113.126 258.354 112.142 259.025C110.227 260.339 107.555 261.576 104.826 262.458C102.022 263.375 99.1644 263.931 97.0526 263.745C96.5544 263.704 96.1016 263.616 95.7229 263.464C95.4658 263.361 95.2528 263.245 95.1315 263.035Z" fill="#CC7028"/>
<path fill-rule="evenodd" clip-rule="evenodd" d="M104.267 244.564C103.65 241.273 101 239.338 97.7041 238.748C93.5489 237.999 88.4538 239.492 85.994 242.525C84.6481 244.178 84.1928 246.711 84.957 250.167C85.7487 253.77 87.8764 258.548 91.39 264.478C91.503 264.67 91.6509 264.833 91.8354 264.966C95.4752 267.576 101.085 272.201 106.437 274.948C109.17 276.35 111.868 277.265 114.233 277.304C116.52 277.347 118.149 276.626 119.279 275.507C120.509 274.313 121.166 272.594 121.305 270.642C121.5 268.011 120.756 264.939 119.482 262.462C118.417 260.398 116.976 258.76 115.514 257.998C114.725 257.588 113.747 257.894 113.33 258.681C112.912 259.469 113.223 260.447 114.011 260.859C115.001 261.374 115.89 262.547 116.599 263.934C117.611 265.897 118.242 268.324 118.086 270.404C118.005 271.513 117.718 272.526 117.011 273.202C116.406 273.798 115.507 274.095 114.288 274.074C111.74 274.03 108.778 272.669 105.805 270.906C101.416 268.301 97.0614 264.764 93.9989 262.543C91.4099 258.145 89.6167 254.435 88.6381 251.414C88.066 249.628 87.7719 248.102 87.8108 246.84C87.8342 245.895 88.0352 245.127 88.4949 244.557C89.9939 242.703 92.8908 241.756 95.5597 241.784C98.1361 241.811 100.63 242.724 101.087 245.162C101.253 246.037 102.11 246.62 102.974 246.449C103.852 246.284 104.432 245.441 104.267 244.564Z" fill="#CC7028"/>
<path fill-rule="evenodd" clip-rule="evenodd" d="M91.8825 264.561C92.5484 268.414 94.1318 276.137 97.469 281.209C100.119 285.244 103.828 287.67 108.812 286.208C110.183 285.803 113.93 284.578 115.612 281.698C116.489 280.211 116.886 278.295 116.198 275.837C115.948 274.977 115.06 274.481 114.195 274.72C113.343 274.967 112.846 275.862 113.081 276.714C113.598 278.531 113.163 279.834 112.319 280.748C110.946 282.253 108.768 282.86 107.899 283.106C104.46 284.119 102.01 282.227 100.171 279.437C97.0816 274.742 95.682 267.573 95.0568 264.005C94.9097 263.129 94.0745 262.54 93.1873 262.688C92.3148 262.843 91.7205 263.678 91.8825 264.561Z" fill="#CC7028"/>
<path fill-rule="evenodd" clip-rule="evenodd" d="M59.5853 270.017C58.7978 270.25 58.3251 271.037 58.4594 271.838C59.7158 279.029 66.0085 285.636 73.7391 289.527C81.4261 293.396 90.4518 294.527 97.0352 291.167C97.5628 290.899 97.9082 290.365 97.9164 289.77C97.9387 289.182 97.6255 288.626 97.122 288.336C93.975 286.519 90.9818 283.37 87.7264 280.19C84.603 277.138 81.2418 274.045 77.3945 271.89C72.4481 269.12 66.6959 267.843 59.5853 270.017ZM61.9663 272.708C67.4243 271.427 71.9042 272.517 75.8215 274.712C80.1756 277.151 83.8451 280.905 87.2955 284.296C89.189 286.152 91.0293 287.906 92.8702 289.336C87.4811 290.822 80.9197 289.525 75.183 286.638C68.9415 283.495 63.6203 278.435 61.9663 272.708Z" fill="#CC7028"/>
<path fill-rule="evenodd" clip-rule="evenodd" d="M59.9796 273.145C69.8214 277.061 76.2836 283.181 84.1675 287.29C87.7225 289.143 91.5445 290.598 96.0484 291.325C96.9348 291.469 97.7651 290.87 97.902 289.987C98.039 289.104 97.4369 288.273 96.5645 288.137C92.4345 287.474 88.9229 286.127 85.6549 284.423C77.6855 280.268 71.1354 274.107 61.172 270.143C60.3529 269.817 59.4105 270.222 59.0815 271.05C58.7525 271.879 59.1606 272.819 59.9796 273.145Z" fill="#CC7028"/>
<path fill-rule="evenodd" clip-rule="evenodd" d="M37.9928 274.987C38.0576 275.811 38.7508 276.452 39.5861 276.458C46.3454 276.508 56.1782 273.075 64.6751 264.043C70.0659 258.324 74.9331 250.346 78.098 239.567C78.3118 238.873 78.0192 238.121 77.4011 237.738C76.7822 237.356 75.9892 237.437 75.4594 237.935C69.8735 243.121 62.8041 246.418 56.4001 249.791C51.3684 252.433 46.7203 255.122 43.3712 258.662C39.5806 262.676 37.364 267.742 37.9928 274.987ZM41.125 273.179C40.9949 267.849 42.7782 263.985 45.723 260.887C49.5925 256.801 55.3278 253.973 61.2862 250.888C65.3291 248.795 69.4578 246.586 73.2443 243.871C70.3551 251.492 66.5069 257.382 62.3185 261.827C55.2188 269.376 47.1482 272.727 41.125 273.179Z" fill="#CC7028"/>
<path fill-rule="evenodd" clip-rule="evenodd" d="M74.9716 238.683C67.5441 247.704 60.9182 255.014 55.0529 260.586C49.0754 266.256 43.9496 270.127 39.6269 272.156C38.8143 272.53 38.4643 273.491 38.8385 274.296C39.2267 275.11 40.1835 275.455 40.9961 275.082C45.5496 272.944 50.9933 268.909 57.2811 262.928C63.2129 257.273 69.9445 249.877 77.4627 240.731C78.0287 240.042 77.927 239.022 77.2444 238.46C76.5478 237.89 75.5367 237.995 74.9716 238.683Z" fill="#CC7028"/>
<path fill-rule="evenodd" clip-rule="evenodd" d="M144.374 174.58C144.655 175.03 145.126 175.311 145.648 175.344C146.171 175.376 146.674 175.15 147.004 174.741C151.024 169.748 156.132 163.452 159.081 158.021C161.05 154.384 162.004 151.052 161.45 148.621C160.93 146.389 159.194 144.163 156.811 142.411C153.865 140.247 149.94 138.776 146.463 138.726C144.005 138.687 141.773 139.357 140.131 140.843C138.666 142.153 137.624 144.12 137.405 146.954C137.04 151.366 136.924 155.926 138.412 161.424C139.445 165.255 141.272 169.552 144.374 174.58ZM145.952 170.91C143.747 167.042 142.365 163.654 141.529 160.58C140.154 155.5 140.291 151.29 140.615 147.209C140.768 145.393 141.352 144.089 142.29 143.241C143.35 142.277 144.834 141.935 146.424 141.96C149.274 141.998 152.476 143.235 154.898 145.014C156.601 146.264 157.921 147.757 158.291 149.345C158.533 150.379 158.298 151.626 157.813 153.015C157.196 154.826 156.119 156.82 154.823 158.905C152.326 162.906 148.95 167.171 145.952 170.91Z" fill="#CC7028"/>
<path fill-rule="evenodd" clip-rule="evenodd" d="M96.1912 110.488C96.4585 110.929 96.9432 111.22 97.4659 111.252C97.9886 111.283 98.4911 111.058 98.8202 110.65C102.841 105.655 107.95 99.3591 110.899 93.9285C112.868 90.2915 113.822 86.9597 113.252 84.5219C112.733 82.2882 111.011 80.0706 108.615 78.3103C105.682 76.1547 101.758 74.6833 98.2803 74.6338C95.8218 74.5962 93.5901 75.264 91.9349 76.742C90.4831 78.0614 89.4402 80.029 89.2085 82.8529C88.8571 87.2729 88.7279 91.825 90.2154 97.3236C91.2628 101.162 93.0886 105.461 96.1912 110.488ZM97.7556 106.809C95.55 102.942 94.1674 99.5549 93.3465 96.487C91.9705 91.409 92.1074 87.1989 92.4321 83.1159C92.5852 81.3003 93.156 79.9888 94.1065 79.1501C95.1664 78.1862 96.6366 77.836 98.2271 77.8591C101.076 77.8984 104.293 79.1421 106.702 80.9132C108.404 82.1644 109.738 83.6641 110.108 85.2521C110.349 86.2882 110.115 87.5331 109.63 88.9236C109 90.725 107.937 92.7277 106.64 94.8118C104.129 98.807 100.767 103.078 97.7556 106.809Z" fill="#CC7028"/>
<path fill-rule="evenodd" clip-rule="evenodd" d="M159.847 156.405C161.535 154.709 163.303 153.907 165.034 153.816C167.014 153.713 168.914 154.523 170.515 155.789C173.832 158.409 176.041 163.013 175.112 166.657C174.095 170.68 170.451 172.276 166.195 172.928C159.177 174.006 150.478 172.471 146.253 172.392C145.366 172.378 144.622 173.085 144.61 173.978C144.597 174.872 145.31 175.608 146.197 175.622C151.274 175.711 162.631 177.746 170.228 175.31C174.189 174.037 177.19 171.618 178.251 167.454C179.439 162.716 176.822 156.654 172.519 153.255C170.291 151.493 167.614 150.446 164.863 150.59C162.441 150.717 159.922 151.752 157.563 154.127C156.936 154.761 156.941 155.786 157.568 156.411C158.195 157.038 159.221 157.037 159.847 156.405Z" fill="#CC7028"/>
<path fill-rule="evenodd" clip-rule="evenodd" d="M111.665 92.3119C113.352 90.6173 115.12 89.8147 116.851 89.7232C118.831 89.6207 120.718 90.4227 122.332 91.6975C125.649 94.3176 127.858 98.9218 126.929 102.566C125.912 106.589 122.268 108.183 118.012 108.837C110.994 109.915 102.281 108.37 98.0702 108.3C97.1832 108.285 96.4398 108.992 96.4274 109.885C96.415 110.779 97.1269 111.516 98.0146 111.529C103.091 111.62 114.448 113.653 122.032 111.21C126.006 109.946 129.006 107.527 130.054 103.354C131.255 98.6249 128.625 92.5542 124.335 89.1638C122.094 87.3926 119.431 86.353 116.681 86.4976C114.258 86.6256 111.739 87.661 109.379 90.0358C108.739 90.6602 108.744 91.685 109.385 92.3197C110.011 92.9463 111.038 92.9457 111.665 92.3119Z" fill="#CC7028"/>
<path fill-rule="evenodd" clip-rule="evenodd" d="M172.733 173.943C175.853 174.482 177.337 176.241 177.76 178.415C178.207 180.709 177.612 183.355 176.659 185.522C175.917 187.227 174.979 188.658 174.073 189.29C170.687 191.634 166.489 190.185 162.431 187.62C155.956 183.525 149.896 176.32 147.543 173.064C147.376 172.837 147.147 172.651 146.896 172.538C140.642 169.674 133.684 166.061 128.875 161.533C125.397 158.255 123.06 154.519 123.273 150.178C123.486 146.094 126.39 143.906 129.524 143.228C131.691 142.767 133.96 142.971 135.613 143.824C136.661 144.366 137.447 145.169 137.532 146.281C137.599 147.166 138.388 147.835 139.271 147.759C140.155 147.682 140.826 146.907 140.745 146.014C140.562 143.779 139.183 142.033 137.099 140.959C134.858 139.801 131.768 139.436 128.845 140.074C124.393 141.035 120.341 144.21 120.048 150.014C119.786 155.281 122.447 159.91 126.661 163.884C131.614 168.547 138.705 172.318 145.171 175.3C147.833 178.892 154.08 186.161 160.706 190.35C165.993 193.692 171.524 194.998 175.917 191.943C177.169 191.066 178.596 189.175 179.625 186.813C180.82 184.064 181.493 180.702 180.93 177.802C180.278 174.44 178.115 171.599 173.284 170.76C172.403 170.606 171.575 171.2 171.423 172.078C171.27 172.956 171.853 173.789 172.733 173.943Z" fill="#CC7028"/>
<path fill-rule="evenodd" clip-rule="evenodd" d="M124.551 109.85C127.671 110.389 129.154 112.148 129.576 114.323C130.024 116.617 129.415 119.254 128.476 121.429C127.734 123.136 126.796 124.566 125.876 125.19C122.504 127.542 118.305 126.093 114.248 123.527C107.772 119.434 101.699 112.22 99.3455 108.965C99.179 108.736 98.9639 108.56 98.7132 108.445C92.46 105.581 85.5015 101.968 80.6932 97.4408C77.2142 94.1641 74.8639 90.4183 75.0907 86.0849C75.2892 81.9943 78.2079 79.8135 81.3403 79.1362C83.495 78.6664 85.7773 78.8802 87.4294 79.7333C88.4638 80.2671 89.25 81.0697 89.3492 82.1899C89.4169 83.0738 90.1919 83.7338 91.0888 83.6661C91.9717 83.5903 92.6435 82.8145 92.5617 81.9225C92.3798 79.6859 90.9998 77.9419 88.9029 76.8581C86.6761 75.7085 83.5851 75.345 80.6629 75.9814C76.2103 76.9427 72.1581 80.1175 71.8655 85.9216C71.6028 91.1892 74.2634 95.8191 78.4776 99.7925C83.418 104.446 90.522 108.227 96.9882 111.207C99.6369 114.791 105.883 122.06 112.522 126.259C117.796 129.592 123.327 130.897 127.72 127.842C128.986 126.975 130.414 125.082 131.441 122.722C132.637 119.973 133.309 116.611 132.747 113.709C132.095 110.349 129.918 107.498 125.102 106.668C124.221 106.513 123.378 107.101 123.225 107.979C123.073 108.857 123.669 109.697 124.551 109.85Z" fill="#CC7028"/>
<path fill-rule="evenodd" clip-rule="evenodd" d="M-14.0292 156.885C-13.6449 157.221 -13.1419 157.351 -12.6383 157.253C-12.1494 157.15 -11.7354 156.82 -11.5114 156.367C-9.13601 151.413 -6.51691 145.908 -5.34174 141.385C-4.51889 138.248 -4.41981 135.525 -5.26069 133.622C-6.46877 130.87 -9.97205 129.024 -13.6576 128.948C-16.9802 128.889 -20.3693 130.237 -22.1377 133.3C-23.6017 135.835 -23.2774 139.86 -21.8626 143.967C-20.0312 149.257 -16.5315 154.694 -14.0292 156.885ZM-13.4128 152.845C-15.3624 150.441 -17.5232 146.625 -18.8103 142.911C-19.4325 141.114 -19.8458 139.343 -19.8905 137.773C-19.9132 136.682 -19.7878 135.689 -19.3404 134.915C-18.1809 132.906 -15.9073 132.134 -13.7149 132.18C-11.3561 132.229 -8.98786 133.166 -8.21447 134.927C-7.41203 136.735 -8.03401 139.492 -9.0893 142.644C-10.1653 145.864 -11.7798 149.436 -13.4128 152.845Z" fill="#CC7028"/>
<path fill-rule="evenodd" clip-rule="evenodd" d="M-14.4172 154.973C-14.646 155.434 -14.6391 155.971 -14.3979 156.426C-14.1559 156.879 -13.7046 157.195 -13.2037 157.264C-10.1925 157.701 -3.78842 156.364 1.55741 154.081C5.46784 152.411 8.7918 150.207 10.0604 148.01C11.61 145.326 10.5911 141.793 8.26255 139.108C6.03484 136.539 2.73303 134.894 0.12046 135.349C-2.2411 135.757 -4.44605 137.509 -6.44004 140.123C-9.40855 144.037 -12.0065 149.926 -14.4172 154.973ZM-10.4243 154.065C-8.76654 150.58 -7.04506 146.888 -5.14162 143.914C-3.36037 141.119 -1.52692 138.913 0.672689 138.527C2.36947 138.236 4.38333 139.561 5.82742 141.227C6.54327 142.054 7.11913 142.994 7.40774 143.948C7.66358 144.797 7.69109 145.654 7.26312 146.395C6.72451 147.328 5.65646 148.209 4.3138 149.049C2.57855 150.148 0.40184 151.141 -1.85494 151.949C-4.87904 153.052 -8.03989 153.844 -10.4243 154.065Z" fill="#CC7028"/>
<path fill-rule="evenodd" clip-rule="evenodd" d="M-20.228 136.873C-22.4859 133.516 -26.1564 133.575 -29.5257 135.535C-32.2306 137.119 -34.6599 139.97 -35.6222 142.671C-36.2135 144.373 -36.2394 146.033 -35.6289 147.398C-34.7076 149.42 -32.3519 151.121 -29.2556 152.444C-24.1692 154.616 -17.0653 155.943 -13.3054 157.312C-9.48316 158.702 -3.74806 163.11 1.4235 164.876C4.43052 165.901 7.27315 166.049 9.6046 164.756C11.0866 163.933 12.227 162.378 12.87 160.489C13.6617 158.149 13.6786 155.309 12.8473 153.067C12.2672 151.52 11.2891 150.243 9.94162 149.476C8.74869 148.797 7.23041 148.487 5.36951 148.836C4.49219 148.999 3.91194 149.842 4.0771 150.719C4.24227 151.596 5.08373 152.173 5.96105 152.01C6.92419 151.827 7.72336 151.929 8.34037 152.281C9.43535 152.904 9.97162 154.204 10.1606 155.589C10.3691 157.069 10.1645 158.683 9.59459 159.993C9.23948 160.834 8.73272 161.551 8.04391 161.936L8.04309 161.937C6.45427 162.816 4.51848 162.519 2.46233 161.817C-2.67883 160.062 -8.39747 155.659 -12.205 154.275C-15.9189 152.924 -22.9464 151.626 -27.9876 149.473C-30.2013 148.527 -32.0364 147.506 -32.6802 146.07C-33.0254 145.311 -32.8447 144.384 -32.4527 143.447C-31.8572 141.963 -30.6794 140.472 -29.3106 139.329C-27.1673 137.555 -24.4549 136.377 -22.9091 138.674C-22.42 139.41 -21.4152 139.607 -20.679 139.108C-19.9296 138.617 -19.7389 137.608 -20.228 136.873Z" fill="#CC7028"/>
<path fill-rule="evenodd" clip-rule="evenodd" d="M-30.0118 241.61C-22.2517 232.303 -16.4835 228.191 -11.1542 224.484C-6.62939 221.33 -2.4275 218.445 2.35894 213.126C6.93198 208.048 12.0231 200.715 18.3946 188.711C18.8115 187.924 18.517 186.948 17.7324 186.531C16.947 186.115 15.9578 186.407 15.54 187.195C9.33702 198.876 4.40742 206.025 -0.0480115 210.964C-4.61756 216.069 -8.66335 218.813 -13.0132 221.825C-18.5118 225.664 -24.4747 229.92 -32.4935 239.545C-33.0586 240.233 -32.9725 241.247 -32.2791 241.822C-31.599 242.388 -30.5769 242.298 -30.0118 241.61Z" fill="#CC7028"/>
<path fill-rule="evenodd" clip-rule="evenodd" d="M57.3071 184.006C65.5751 175.532 72.3378 172.863 78.6043 171.021C84.3129 169.337 89.6004 168.254 95.1569 164.476C100.748 160.67 106.65 154.131 113.438 141.339C113.856 140.551 113.562 139.575 112.776 139.159C111.992 138.741 111.016 139.043 110.585 139.822C104.148 151.939 98.6482 158.203 93.3418 161.806C88.0948 165.371 83.0674 166.326 77.6889 167.922C71.0156 169.888 63.8039 172.721 54.9926 181.749C54.3648 182.384 54.3864 183.413 55.0178 184.031C55.6625 184.659 56.6793 184.642 57.3071 184.006Z" fill="#CC7028"/>
<path fill-rule="evenodd" clip-rule="evenodd" d="M47.9055 200.065C48.6676 200.328 49.519 199.984 49.8824 199.257C52.3718 194.235 52.9022 189.472 52.3503 184.646C51.7373 179.345 49.7767 173.956 47.7166 168.028C44.2033 157.898 40.3987 146.109 43.2912 130.117C43.4122 129.391 43.0429 128.674 42.3821 128.365C41.7212 128.056 40.9307 128.23 40.4579 128.791C29.9719 141.333 22.5029 160.277 25.5381 175.854C27.586 186.325 34.2708 195.354 47.9055 200.065ZM47.5886 196.512C36.2119 192.153 30.4923 184.327 28.7103 175.237C26.2093 162.417 31.3635 147.224 39.2725 135.689C38.3043 146.733 40.3462 155.761 42.8673 163.701C45.3749 171.599 48.3688 178.364 49.136 185.014C49.583 188.826 49.2559 192.591 47.5886 196.512Z" fill="#CC7028"/>
<path fill-rule="evenodd" clip-rule="evenodd" d="M50.0039 198.175C48.5288 191.783 45.8885 186.505 43.3359 181.139C40.9366 176.089 38.6192 170.962 37.6009 164.651C36.227 156.21 37.1962 145.681 43.194 130.415C43.523 129.587 43.1141 128.648 42.2926 128.327C41.4572 127.997 40.5147 128.402 40.1997 129.239C33.8869 145.244 32.9779 156.314 34.4124 165.167C35.4834 171.807 37.8987 177.216 40.4255 182.53C42.8749 187.687 45.4481 192.759 46.8614 198.902C47.0666 199.774 47.9299 200.314 48.7929 200.111C49.67 199.916 50.21 199.045 50.0039 198.175Z" fill="#CC7028"/>
</g>
<defs>
<clipPath id="clip0_2217_3706">
<rect width="323" height="323" fill="white" transform="translate(-7.5) rotate(30)"/>
</clipPath>
</defs>
</svg>
