<svg width="40" height="40" viewBox="0 0 40 40" fill="none" xmlns="http://www.w3.org/2000/svg">
<g clip-path="url(#clip0_2299_1410)">
<path d="M33.75 12.5H6.25C5.55964 12.5 5 13.0596 5 13.75V18.75C5 19.4404 5.55964 20 6.25 20H33.75C34.4404 20 35 19.4404 35 18.75V13.75C35 13.0596 34.4404 12.5 33.75 12.5Z" stroke="white" stroke-width="1.5" stroke-linecap="round" stroke-linejoin="round"/>
<path d="M32.5 20V31.25C32.5 31.5815 32.3683 31.8995 32.1339 32.1339C31.8995 32.3683 31.5815 32.5 31.25 32.5H8.75C8.41848 32.5 8.10054 32.3683 7.86612 32.1339C7.6317 31.8995 7.5 31.5815 7.5 31.25V20" stroke="white" stroke-width="1.5" stroke-linecap="round" stroke-linejoin="round"/>
<path d="M20 12.5V32.5" stroke="white" stroke-width="1.5" stroke-linecap="round" stroke-linejoin="round"/>
<path d="M27.6234 4.87644C29.0828 6.33581 29.1687 8.79206 27.6234 10.1608C24.9812 12.4999 20 12.4999 20 12.4999C20 12.4999 20 7.51863 22.3438 4.87644C23.7078 3.33113 26.1641 3.41706 27.6234 4.87644Z" stroke="white" stroke-width="1.5" stroke-linecap="round" stroke-linejoin="round"/>
<path d="M12.377 4.87644C10.9176 6.33581 10.8317 8.79206 12.377 10.1608C15.0192 12.4999 20.0004 12.4999 20.0004 12.4999C20.0004 12.4999 20.0004 7.51863 17.6567 4.87644C16.2926 3.33113 13.8364 3.41706 12.377 4.87644Z" stroke="white" stroke-width="1.5" stroke-linecap="round" stroke-linejoin="round"/>
</g>
<defs>
<clipPath id="clip0_2299_1410">
<rect width="40" height="40" fill="white"/>
</clipPath>
</defs>
</svg>
