<svg width="48" height="48" viewBox="0 0 48 48" fill="none" xmlns="http://www.w3.org/2000/svg">
<circle cx="24" cy="24" r="24" fill="white"/>
<path d="M23.9985 12.8924C20.982 12.8924 20.6034 12.9056 19.4186 12.9595C18.2362 13.0137 17.4291 13.2009 16.7229 13.4756C15.9923 13.7593 15.3726 14.1388 14.7553 14.7564C14.1374 15.3738 13.758 15.9935 13.4733 16.7238C13.198 17.4303 13.0105 18.2376 12.9573 19.4197C12.9043 20.6045 12.8904 20.9833 12.8904 23.9999C12.8904 27.0165 12.9039 27.3939 12.9575 28.5787C13.0119 29.7612 13.1991 30.5683 13.4736 31.2745C13.7575 32.0051 14.137 32.6248 14.7546 33.2422C15.3717 33.86 15.9914 34.2405 16.7215 34.5242C17.4282 34.7988 18.2355 34.986 19.4177 35.0402C20.6025 35.0941 20.9808 35.1073 23.9971 35.1073C27.0138 35.1073 27.3912 35.0941 28.576 35.0402C29.7584 34.986 30.5665 34.7988 31.2732 34.5242C32.0035 34.2405 32.6222 33.86 33.2393 33.2422C33.8572 32.6248 34.2367 32.0051 34.5213 31.2748C34.7943 30.5683 34.9818 29.7609 35.0373 28.5789C35.0905 27.3941 35.1044 27.0165 35.1044 23.9999C35.1044 20.9833 35.0905 20.6047 35.0373 19.4199C34.9818 18.2374 34.7943 17.4303 34.5213 16.724C34.2367 15.9935 33.8572 15.3738 33.2393 14.7564C32.6215 14.1385 32.0037 13.759 31.2725 13.4756C30.5644 13.2009 29.7568 13.0137 28.5744 12.9595C27.3896 12.9056 27.0124 12.8924 23.995 12.8924H23.9985ZM23.0021 14.8941C23.2978 14.8936 23.6278 14.8941 23.9985 14.8941C26.9641 14.8941 27.3156 14.9047 28.4867 14.9579C29.5696 15.0075 30.1574 15.1884 30.5489 15.3405C31.0672 15.5418 31.4368 15.7824 31.8253 16.1712C32.214 16.56 32.4547 16.9302 32.6565 17.4486C32.8085 17.8396 32.9897 18.4274 33.039 19.5104C33.0922 20.6813 33.1037 21.033 33.1037 23.9973C33.1037 26.9616 33.0922 27.3134 33.039 28.4843C32.9894 29.5672 32.8085 30.155 32.6565 30.5461C32.4551 31.0644 32.214 31.4335 31.8253 31.822C31.4365 32.2108 31.0674 32.4515 30.5489 32.6528C30.1578 32.8055 29.5696 32.986 28.4867 33.0355C27.3158 33.0888 26.9641 33.1003 23.9985 33.1003C21.0326 33.1003 20.6811 33.0888 19.5103 33.0355C18.4273 32.9855 17.8396 32.8046 17.4478 32.6526C16.9295 32.4512 16.5593 32.2106 16.1705 31.8218C15.7818 31.4331 15.5411 31.0637 15.3393 30.5452C15.1873 30.1541 15.0061 29.5663 14.9568 28.4833C14.9036 27.3124 14.893 26.9607 14.893 23.9945C14.893 21.0284 14.9036 20.6785 14.9568 19.5076C15.0063 18.4246 15.1873 17.8369 15.3393 17.4453C15.5406 16.927 15.7818 16.5567 16.1705 16.168C16.5593 15.7792 16.9295 15.5385 17.4478 15.3368C17.8393 15.184 18.4273 15.0035 19.5103 14.9538C20.5349 14.9075 20.932 14.8936 23.0021 14.8913V14.8941ZM29.9273 16.7384C29.1915 16.7384 28.5945 17.3347 28.5945 18.0708C28.5945 18.8067 29.1915 19.4037 29.9273 19.4037C30.6632 19.4037 31.2602 18.8067 31.2602 18.0708C31.2602 17.3349 30.6632 16.7379 29.9273 16.7379V16.7384ZM23.9985 18.2957C20.8484 18.2957 18.2945 20.8497 18.2945 23.9999C18.2945 27.15 20.8484 29.7028 23.9985 29.7028C27.1485 29.7028 29.7015 27.15 29.7015 23.9999C29.7015 20.8497 27.1483 18.2957 23.9982 18.2957H23.9985ZM23.9985 20.2974C26.0431 20.2974 27.7008 21.9549 27.7008 23.9999C27.7008 26.0446 26.0431 27.7023 23.9985 27.7023C21.9536 27.7023 20.2961 26.0446 20.2961 23.9999C20.2961 21.9549 21.9536 20.2974 23.9985 20.2974Z" fill="#09A9B5"/>
</svg>
