<svg width="277" height="458" viewBox="0 0 277 458" fill="none" xmlns="http://www.w3.org/2000/svg">
<path fill-rule="evenodd" clip-rule="evenodd" d="M149.518 131.231C145.056 135.773 139.614 137.542 133.784 137.993C125.827 138.61 117.121 136.671 109.53 136.743C103.208 136.798 98.6989 139.369 95.0419 143.556C87.7025 151.959 83.5918 166.419 76.1217 180.925C50.2719 231.126 25.0206 270.866 -0.46832 301.903C-23.6039 330.072 -46.9478 351.087 -71.1195 366.258C-72.0332 366.831 -73.2416 366.555 -73.8156 365.641C-74.3896 364.727 -74.1124 363.519 -73.1987 362.946C-49.3452 347.974 -26.3212 327.22 -3.48962 299.421C21.8525 268.564 46.9443 229.046 72.6439 179.136C80.2825 164.303 84.5932 149.575 92.0971 140.985C96.4841 135.959 101.908 132.9 109.494 132.832C117.001 132.762 125.612 134.704 133.482 134.094C138.379 133.715 142.98 132.306 146.727 128.491C147.483 127.721 148.722 127.71 149.491 128.466C150.262 129.222 150.274 130.462 149.518 131.231Z" fill="#CC7028"/>
<path fill-rule="evenodd" clip-rule="evenodd" d="M-48.0016 200.153C-56.0149 236.087 -46.1417 275.595 -50.1337 313.725C-51.8166 329.798 -55.9234 345.628 -64.7192 360.862C-65.2587 361.797 -66.4553 362.118 -67.3899 361.578C-68.3246 361.038 -68.6451 359.842 -68.1056 358.907C-59.5998 344.175 -55.6506 328.861 -54.0232 313.318C-50.0149 275.038 -59.8693 235.372 -51.821 199.3C-51.5771 198.252 -50.537 197.584 -49.4781 197.823C-48.4191 198.061 -47.7577 199.105 -48.0016 200.153Z" fill="#CC7028"/>
<path fill-rule="evenodd" clip-rule="evenodd" d="M-51.7425 199.085C-51.4428 198.213 -50.5695 197.678 -49.6629 197.79C-48.7564 197.901 -48.0342 198.644 -47.9535 199.56C-45.3634 228.82 -35.0009 267.144 -37.1821 301.391C-38.6921 325.118 -46.1729 346.901 -65.9919 362.612C-66.6412 363.126 -67.5454 363.175 -68.2469 362.736C-68.9489 362.294 -69.2957 361.46 -69.1154 360.651C-61.7654 327.88 -63.0495 309.685 -64.6345 292.992C-65.9701 279.019 -67.4876 266.084 -64.5332 246.812C-62.6018 234.277 -58.7927 219.038 -51.7425 199.085ZM-50.893 208.679C-56.0608 224.356 -59.0513 236.848 -60.6571 247.41C-63.5577 266.277 -62.0419 278.945 -60.743 292.622C-59.2224 308.624 -57.9721 325.983 -64.0761 355.809C-48.4364 341.202 -42.408 321.931 -41.0844 301.143C-39.1281 270.422 -47.3713 236.403 -50.893 208.679Z" fill="#CC7028"/>
<path fill-rule="evenodd" clip-rule="evenodd" d="M-18.1309 150.683C-17.635 149.981 -16.7423 149.686 -15.9282 149.957C-15.1141 150.228 -14.5674 151.002 -14.5902 151.863C-15.117 172.913 -10.8258 189.173 -6.44936 204.011C-2.89855 216.047 0.696782 227.166 1.94845 239.075C3.16544 250.657 2.19049 262.982 -3.16134 277.581C-3.46149 278.402 -4.27051 278.923 -5.14262 278.858C-6.01473 278.793 -6.73612 278.157 -6.9122 277.301C-8.72296 268.468 -13.5773 258.74 -18.6142 248.097C-25.1809 234.222 -32.0607 218.84 -33.4176 201.991C-34.7185 186.178 -31.2105 169.075 -18.1309 150.683ZM-18.52 158.317C-28.0226 173.76 -30.6277 188.204 -29.529 201.668C-28.1908 218.042 -21.4558 232.951 -15.0794 246.424C-11.0811 254.874 -7.22313 262.777 -4.81251 270.122C-1.4889 258.797 -0.952039 248.885 -1.94035 239.484C-3.16722 227.809 -6.71896 216.916 -10.1992 205.117C-14.2086 191.517 -18.1373 176.737 -18.52 158.317Z" fill="#CC7028"/>
<path fill-rule="evenodd" clip-rule="evenodd" d="M8.31389 89.2375C8.78211 88.5439 9.64197 88.2276 10.4408 88.4472C11.2565 88.6766 11.8195 89.3831 11.8759 90.2239C13.7607 123.208 23.465 131.851 26.7586 157.55C27.7811 165.528 28.1991 175.127 27.5901 187.549C27.5563 188.229 27.1708 188.842 26.5731 189.17C25.9746 189.494 25.2497 189.487 24.6588 189.146C16.6821 184.54 0.909073 166.27 -3.50203 142.276C-6.43126 126.312 -4.38368 107.828 8.31389 89.2375ZM8.4057 96.3908C-0.789633 112.279 -2.15763 127.904 0.355479 141.577C4.02042 161.585 15.9524 177.464 23.8323 183.812C24.1939 173.368 23.7786 165.066 22.8798 158.047C19.7774 133.863 11.0428 124.709 8.4057 96.3908Z" fill="#CC7028"/>
<path fill-rule="evenodd" clip-rule="evenodd" d="M65.9232 82.1525C66.4714 81.4102 67.461 81.1507 68.3011 81.5296C69.1411 81.9085 69.6029 82.8253 69.4087 83.7247C60.8249 123.485 63.762 147.549 60.1226 168.372C58.0925 179.982 54.0751 190.612 45.0893 202.309C44.6495 202.879 43.9342 203.164 43.2247 203.048C42.5124 202.932 41.924 202.435 41.6906 201.756C35.9275 185.05 32.7474 163.706 38.4937 138.909C42.5171 121.555 50.92 102.496 65.9232 82.1525ZM63.7577 92.0345C52.408 109.038 45.7231 125.043 42.3045 139.793C37.1568 162 39.4218 181.34 44.2175 196.898C51.2057 186.96 54.5191 177.714 56.2695 167.698C59.6311 148.483 57.4083 126.513 63.7577 92.0345Z" fill="#CC7028"/>
<path fill-rule="evenodd" clip-rule="evenodd" d="M-14.6869 152.459C-21.6654 172.523 -19.5012 192.628 -15.317 212.319C-10.883 233.184 -4.18976 253.6 -3.16289 273.055C-2.31796 289.062 -5.25285 304.43 -16.1692 318.899C4.04076 315.58 19.7584 325.637 35.7946 337.766C51.1553 349.383 66.8308 362.907 87.5914 367.088C101.413 369.871 117.488 368.462 137.24 359.609C138.224 359.167 139.382 359.609 139.823 360.593C140.264 361.578 139.824 362.736 138.839 363.177C118.15 372.451 101.298 373.837 86.8188 370.921C65.4536 366.618 49.2449 352.841 33.4363 340.884C16.9489 328.415 0.930292 317.909 -20.7208 323.905C-21.5541 324.136 -22.4409 323.791 -22.9001 323.058C-23.3577 322.325 -23.2801 321.377 -22.7088 320.728C-9.60164 305.862 -6.18888 289.921 -7.06786 273.261C-8.08385 253.999 -14.751 233.791 -19.1412 213.132C-23.4767 192.749 -25.5991 171.946 -18.391 151.172C-18.0305 150.156 -16.9246 149.61 -15.9086 149.961C-14.8757 150.323 -14.3433 151.434 -14.6869 152.459Z" fill="#CC7028"/>
<path fill-rule="evenodd" clip-rule="evenodd" d="M65.3466 95.6722L64.7005 96.7914C64.1608 97.7261 62.9643 98.0467 62.0297 97.5071C61.095 96.9674 60.7744 95.7709 61.314 94.8363L61.9602 93.7171C62.4999 92.7824 63.6964 92.4618 64.631 93.0014C65.5657 93.5411 65.8863 94.7376 65.3466 95.6722Z" fill="#CC7028"/>
<path fill-rule="evenodd" clip-rule="evenodd" d="M36.8432 228.092C37.4935 221.315 34.0239 211.758 29.2734 200.341C21.5103 181.684 10.2115 158.307 5.96202 134.174C3.42798 119.754 3.39781 105.065 8.03933 90.9255C8.36404 89.8939 9.47574 89.337 10.5005 89.6736C11.5263 90.0084 12.0845 91.114 11.7429 92.1359C7.31945 105.663 7.38392 119.706 9.80873 133.494C14.01 157.335 25.2167 180.41 32.884 198.838C37.9452 211.004 41.4288 221.245 40.7364 228.466C40.6333 229.54 39.677 230.328 38.6031 230.225C37.5291 230.122 36.7401 229.166 36.8432 228.092Z" fill="#CC7028"/>
<path fill-rule="evenodd" clip-rule="evenodd" d="M151.259 265.374C117.077 293.354 93.226 305.275 72.2867 310.863C43.3642 318.583 20.0089 314.051 -17.7816 323.143C-18.8304 323.396 -19.8864 322.75 -20.1386 321.701C-20.3909 320.652 -19.7445 319.595 -18.6956 319.342C19.0537 310.259 42.3871 314.797 71.2781 307.085C91.8386 301.598 115.218 289.822 148.782 262.348C149.617 261.663 150.85 261.788 151.533 262.622C152.216 263.457 152.094 264.689 151.259 265.374Z" fill="#CC7028"/>
<path fill-rule="evenodd" clip-rule="evenodd" d="M62.0383 250.025C61.4487 249.869 60.9667 249.448 60.7317 248.886C60.4985 248.324 60.5384 247.684 60.843 247.156C70.034 231.237 83.5047 224.371 97.9452 217.925C111.109 212.05 125.098 206.522 137.052 194.044C144.605 186.158 151.336 175.487 156.561 160.21C156.843 159.386 157.637 158.847 158.508 158.891C159.38 158.934 160.115 159.549 160.314 160.397C167.941 192.93 156.158 217.061 137.163 232.427C115.551 249.91 84.4984 255.946 62.0383 250.025ZM65.6029 246.857C86.783 251.418 114.894 245.413 134.704 229.386C151.317 215.948 162.027 195.395 157.82 168.037C152.77 180.537 146.626 189.702 139.875 196.749C127.53 209.638 113.134 215.427 99.5388 221.496C86.5366 227.3 74.275 233.35 65.6029 246.857Z" fill="#CC7028"/>
<path fill-rule="evenodd" clip-rule="evenodd" d="M20.1198 317.828C19.5342 317.564 19.1156 317.03 19.0011 316.399C18.8847 315.768 19.0852 315.12 19.5392 314.666C28.5159 305.663 35.8749 300.812 43.1439 297.845C50.2293 294.954 57.2369 293.867 65.6385 292.527C82.9925 289.763 106.44 285.807 149.6 261.212C150.397 260.758 151.403 260.919 152.018 261.599C152.634 262.28 152.692 263.298 152.161 264.046C127.947 298.079 104.676 316.682 81.6374 323.725C61.1942 329.975 40.8772 327.188 20.1198 317.828ZM24.3598 315.415C43.278 323.432 61.8268 325.692 80.4953 319.986C101.229 313.648 122.046 297.558 143.698 268.972C104.803 290.073 82.7991 293.754 66.2536 296.389C58.1776 297.676 51.4319 298.685 44.6226 301.466C38.3046 304.045 31.9386 308.162 24.3598 315.415Z" fill="#CC7028"/>
<path fill-rule="evenodd" clip-rule="evenodd" d="M21.0962 332.032C20.8752 331.437 20.9552 330.771 21.3141 330.247C21.6714 329.722 22.2629 329.405 22.8967 329.394C46.4629 329.024 56.8692 334.611 65.7238 341.148C72.7628 346.345 78.7416 352.245 90.1262 356.058C100.281 359.46 114.7 361.197 137.891 359.443C138.75 359.378 139.55 359.882 139.862 360.686C140.174 361.488 139.923 362.4 139.246 362.932C113.086 383.442 90.244 386.265 71.743 380.852C44.5218 372.889 26.609 346.845 21.0962 332.032ZM25.8199 333.29C32.0524 347.634 48.5158 369.983 72.8416 377.1C89.1485 381.87 108.953 379.692 131.582 363.762C111.448 364.78 98.3675 362.943 88.8842 359.766C77.0152 355.79 70.7398 349.712 63.4017 344.294C55.4129 338.396 46.0609 333.412 25.8199 333.29Z" fill="#CC7028"/>
<path fill-rule="evenodd" clip-rule="evenodd" d="M68.9469 84.7062C57.4066 107.964 53.2943 130.915 50.7744 153.693C48.1014 177.824 47.2013 201.765 41.375 225.687C37.9246 239.852 32.7565 254.008 24.5031 268.19C42.7249 253.236 63.5271 244.984 83.2207 237.487C101.475 230.54 118.756 224.265 131.934 213.598C145.088 202.948 154.052 187.864 155.746 163.263C155.819 162.186 156.753 161.373 157.831 161.446C158.905 161.52 159.721 162.454 159.646 163.531C157.857 189.512 148.285 205.39 134.394 216.637C120.918 227.544 103.279 234.035 84.6121 241.142C60.8366 250.191 35.3558 260.275 15.0633 282.511C14.3624 283.279 13.1825 283.363 12.3782 282.704C11.5757 282.044 11.4291 280.871 12.044 280.033C25.6372 261.572 33.0905 243.173 37.5749 224.762C43.3612 201.007 44.2331 177.227 46.8864 153.264C49.457 130.05 53.6835 106.67 65.444 82.9683C65.9234 82.0012 67.0972 81.6064 68.0644 82.0858C69.0315 82.5652 69.4263 83.739 68.9469 84.7062Z" fill="#CC7028"/>
<path fill-rule="evenodd" clip-rule="evenodd" d="M120.719 148.465C117.455 151.792 113.443 158.815 108.563 165.637C104.082 171.902 98.8869 177.979 92.9959 181.253C87.2228 184.46 80.7921 185.123 73.6569 181.003C65.6599 176.386 64.2799 169.051 66.2366 160.575C68.2146 151.991 73.7577 142.167 78.4019 133.251C81.8936 126.551 84.9072 120.416 85.1191 115.806C85.169 114.727 86.0845 113.892 87.1615 113.942C88.2412 113.992 89.0745 114.907 89.0256 115.985C88.7959 121.009 85.6745 127.756 81.8708 135.06C77.3792 143.68 71.9597 153.153 70.046 161.454C68.5089 168.12 69.3218 173.985 75.6121 177.617C83.3009 182.056 89.9619 179.54 95.7181 174.528C105.353 166.137 112.633 151.123 117.927 145.727C118.683 144.958 119.922 144.946 120.692 145.7C121.463 146.457 121.475 147.696 120.719 148.465Z" fill="#CC7028"/>
<path fill-rule="evenodd" clip-rule="evenodd" d="M93.4355 139.798C92.9921 132.694 91.4247 127.491 89.3586 123.225C87.2773 118.935 84.703 115.577 82.2845 112.192C79.6424 108.49 77.1784 104.754 75.5866 99.9133C72.7959 91.4322 74.6272 83.1926 79.4598 76.406C83.8331 70.2662 90.6914 65.3241 98.766 62.5494C111.029 58.339 132.729 55.4457 152.414 58.9792C165.024 61.2436 176.795 66.1477 184.868 74.8836C185.409 75.4688 185.54 76.3237 185.201 77.0444C184.86 77.7641 184.117 78.2065 183.322 78.1631C176.003 77.7501 172.01 79.1704 170.042 81.9735C169.015 83.4352 168.58 85.2248 168.434 87.1633C168.215 90.0932 168.667 93.3457 169.146 96.5033C170.589 106.012 170.769 118.149 167.886 128.096C165.642 135.85 161.526 142.275 154.925 145.426C145.297 150.024 135.737 149.905 126.45 149.266C117.09 148.621 108.029 147.39 99.5427 150.785C93.7342 153.107 88.2343 157.644 83.0562 165.999C82.4878 166.917 81.2812 167.2 80.3644 166.633C79.4478 166.062 79.1636 164.857 79.7321 163.939C85.4737 154.675 91.6498 149.73 98.0902 147.154C107.123 143.541 116.755 144.68 126.718 145.364C135.362 145.959 144.278 146.178 153.241 141.898C158.868 139.211 162.217 133.618 164.131 127.006C166.859 117.589 166.648 106.094 165.279 97.0902C164.756 93.6365 164.296 90.0771 164.535 86.8714C164.736 84.1926 165.424 81.7454 166.842 79.7265C168.855 76.8586 172.413 74.7273 178.572 74.2762C171.321 68.1754 161.791 64.6348 151.724 62.8279C132.757 59.4242 111.85 62.1907 100.036 66.2467C92.7725 68.7425 86.5786 73.1517 82.6453 78.674C78.5282 84.456 76.9231 91.467 79.3012 98.6918C80.7608 103.124 83.0458 106.529 85.4667 109.918C88.0071 113.476 90.6924 117.013 92.8762 121.52C95.1264 126.163 96.8557 131.821 97.3393 139.554C97.406 140.631 96.5857 141.56 95.5077 141.628C94.4323 141.696 93.5023 140.875 93.4355 139.798Z" fill="#CC7028"/>
<path fill-rule="evenodd" clip-rule="evenodd" d="M103.976 133.455C107.119 128.012 113.834 119.474 116.522 112.546C117.146 110.938 117.549 109.434 117.557 108.103C117.565 106.879 117.202 105.832 116.201 105.117C115.144 104.359 113.969 104.548 112.75 105.174C110.842 106.156 108.886 108.113 106.955 110.472C102.298 116.164 97.9377 124.194 95.4075 128.522C94.8638 129.452 93.6642 129.766 92.7342 129.222C91.8025 128.678 91.4881 127.478 92.0318 126.548C95.0921 121.314 100.78 110.872 106.475 105.156C110.627 100.988 114.954 99.4181 118.476 101.935C121.962 104.429 122.166 108.811 120.168 113.961C117.414 121.058 110.582 129.833 107.362 135.41C106.823 136.345 105.626 136.666 104.692 136.126C103.757 135.586 103.436 134.39 103.976 133.455Z" fill="#CC7028"/>
</svg>
