<svg width="35" height="35" viewBox="0 0 35 35" fill="none" xmlns="http://www.w3.org/2000/svg">
<g id="map-marker 1">
<g id="Group">
<path id="Vector" d="M17.5 0.710938C9.89844 0.710938 3.66406 6.72656 3.66406 14.0547C3.66406 19.9062 12.0313 29.5859 15.6406 33.5234C16.1328 34.0703 16.7891 34.3437 17.5 34.3437C18.2109 34.3437 18.8672 34.0703 19.3594 33.5234C22.9688 29.6406 31.3359 19.9062 31.3359 14.0547C31.3359 6.67188 25.1016 0.710938 17.5 0.710938ZM17.9375 32.2109C17.6641 32.4844 17.2812 32.4844 17.0625 32.2109C14.3828 29.3125 5.57812 19.3594 5.57812 14.0547C5.57812 7.71094 10.9375 2.625 17.5 2.625C24.0625 2.625 29.4219 7.76562 29.4219 14.0547C29.4219 19.3594 20.6172 29.2578 17.9375 32.2109Z" fill="white"/>
<path id="Vector_2" d="M17.5 8.58594C14.2734 8.58594 11.5938 11.2109 11.5938 14.4922C11.5938 17.7188 14.2187 20.3984 17.5 20.3984C20.7812 20.3984 23.4062 17.7734 23.4062 14.4922C23.4062 11.2109 20.7266 8.58594 17.5 8.58594ZM17.5 18.4297C15.3125 18.4297 13.5078 16.625 13.5078 14.4375C13.5078 12.25 15.3125 10.4453 17.5 10.4453C19.6875 10.4453 21.4922 12.25 21.4922 14.4375C21.4922 16.625 19.6875 18.4297 17.5 18.4297Z" fill="white"/>
</g>
</g>
</svg>
