<svg width="336" height="495" viewBox="0 0 336 495" fill="none" xmlns="http://www.w3.org/2000/svg">
<g opacity="0.3">
<path fill-rule="evenodd" clip-rule="evenodd" d="M201.648 238.719C211.221 257.877 226.092 274.382 243.139 289.221C268.529 311.322 298.737 329.725 323.711 347.559C333.595 354.616 346.254 364.835 360.013 379.47C369.676 389.752 379.882 402.213 390.05 417.291C390.589 418.091 390.378 419.18 389.576 419.72C388.776 420.261 387.687 420.048 387.147 419.248C377.099 404.345 367.013 392.028 357.462 381.867C343.899 367.439 331.421 357.364 321.677 350.407C296.619 332.511 266.317 314.037 240.841 291.86C223.439 276.713 208.289 259.838 198.517 240.283C198.084 239.419 198.436 238.367 199.301 237.935C200.163 237.504 201.216 237.854 201.648 238.719Z" fill="#CC7028"/>
<path fill-rule="evenodd" clip-rule="evenodd" d="M259.164 196.985C284.893 210.745 298.876 225.587 307.839 242.167C315.1 255.601 319.046 270.194 323.24 286.344C330.4 313.916 338.327 346.082 365.481 384.794C366.035 385.584 365.844 386.676 365.053 387.232C364.262 387.785 363.17 387.593 362.615 386.804C335.147 347.642 327.096 315.117 319.853 287.224C315.732 271.365 311.889 257.023 304.759 243.832C296.068 227.754 282.461 213.414 257.514 200.071C256.662 199.616 256.34 198.554 256.796 197.703C257.252 196.85 258.313 196.529 259.164 196.985Z" fill="#CC7028"/>
<path fill-rule="evenodd" clip-rule="evenodd" d="M211.524 342.355C240.864 358.529 262.839 363.512 282.606 366.623C299.825 369.331 315.388 370.654 332.619 376.547C346.76 381.383 362.021 389.284 380.208 403.545C380.968 404.142 381.101 405.243 380.505 406.003C379.908 406.763 378.807 406.896 378.047 406.3C360.25 392.342 345.326 384.592 331.485 379.858C314.462 374.036 299.077 372.758 282.062 370.08C261.977 366.918 239.647 361.854 209.834 345.422C208.989 344.955 208.681 343.89 209.147 343.045C209.612 342.198 210.678 341.89 211.524 342.355Z" fill="#CC7028"/>
<path fill-rule="evenodd" clip-rule="evenodd" d="M390.104 234.703C390.146 249.639 386.838 261.3 381.939 271.141C375.001 285.078 364.828 295.33 356.465 306.118C348.156 316.836 341.67 328.1 342.474 344.433C342.522 345.397 341.777 346.219 340.812 346.266C339.848 346.314 339.026 345.569 338.978 344.605C338.126 327.301 344.895 315.33 353.7 303.974C361.928 293.357 371.978 283.295 378.806 269.582C383.493 260.165 386.643 249.004 386.603 234.714C386.601 233.747 387.383 232.962 388.349 232.959C389.314 232.956 390.101 233.738 390.104 234.703Z" fill="#CC7028"/>
<path fill-rule="evenodd" clip-rule="evenodd" d="M355.229 305.445C354.48 305.353 353.873 304.792 353.725 304.052C351.61 293.54 352.48 285.626 354.977 279.241C358.752 269.595 366.319 263.439 373.26 257.082C379.841 251.054 385.85 244.839 386.607 234.581C386.668 233.773 387.272 233.112 388.071 232.981C388.87 232.852 389.654 233.286 389.967 234.033C398.156 253.596 397.476 268.738 392.74 279.923C384.688 298.941 364.777 306.603 355.229 305.445ZM356.907 302.062C365.946 302.334 382.548 295.02 389.516 278.558C393.495 269.165 394.298 256.814 388.947 241.18C386.637 248.9 381.39 254.382 375.624 259.664C369.064 265.671 361.804 271.399 358.238 280.517C356.041 286.129 355.279 293.026 356.907 302.062Z" fill="#CC7028"/>
<path fill-rule="evenodd" clip-rule="evenodd" d="M245.438 236.464C254.912 244.22 260.432 251.896 264.026 259.643C268.041 268.296 269.622 277.045 271.607 286.137C274.104 297.581 277.267 309.589 287.241 322.659C287.732 323.301 287.719 324.196 287.208 324.823C286.698 325.452 285.824 325.647 285.094 325.298C262.464 314.476 242.952 312.125 225.467 310.657C210.407 309.392 196.825 308.754 184.036 304.164C176.239 301.366 168.734 297.113 161.376 290.387C160.662 289.735 160.613 288.628 161.265 287.914C161.916 287.202 163.025 287.152 163.737 287.803C170.713 294.182 177.827 298.217 185.219 300.87C197.73 305.36 211.026 305.933 225.759 307.17C242.068 308.539 260.104 310.686 280.72 319.479C273.242 307.945 270.439 297.2 268.187 286.885C266.258 278.043 264.754 269.528 260.85 261.115C257.446 253.776 252.196 246.521 243.221 239.172C242.473 238.56 242.363 237.458 242.975 236.709C243.587 235.962 244.691 235.853 245.438 236.464Z" fill="#CC7028"/>
<path fill-rule="evenodd" clip-rule="evenodd" d="M271.594 291.066C271.075 291.621 270.261 291.78 269.572 291.459C261.508 287.693 257.474 283.567 255.066 278.795C253.166 275.026 252.307 270.819 251.337 265.963C249.864 258.593 248.072 249.649 241.234 238.363C240.888 237.794 240.898 237.074 241.258 236.513C241.618 235.95 242.268 235.642 242.931 235.719C256.874 237.33 274.039 247.887 279.189 261.937C282.399 270.695 281.126 280.836 271.594 291.066ZM269.893 287.73C279.703 276.547 278.653 265.593 272.633 256.947C266.633 248.331 255.896 241.962 246.101 239.8C251.698 250.035 253.38 258.324 254.769 265.278C255.67 269.792 256.423 273.715 258.191 277.218C260.194 281.189 263.544 284.571 269.893 287.73Z" fill="#CC7028"/>
<path fill-rule="evenodd" clip-rule="evenodd" d="M315.516 261.547C315.164 262.065 314.561 262.356 313.936 262.308C302.397 261.423 294.97 257.34 289.392 251.378C284.046 245.668 280.434 238.17 276.537 230.017C271.831 220.171 266.677 209.342 257.101 199.765C256.608 199.273 256.455 198.533 256.712 197.884C256.968 197.235 257.586 196.801 258.284 196.778C279.845 196.09 302.153 206.717 313.579 221.687C322.525 233.41 324.914 247.749 315.516 261.547ZM313.184 258.729C320.951 246.609 318.642 234.091 310.797 223.81C300.682 210.557 281.538 200.951 262.403 200.284C270.532 209.395 275.318 219.352 279.695 228.507C283.425 236.313 286.83 243.52 291.947 248.988C296.832 254.208 303.312 257.776 313.184 258.729Z" fill="#CC7028"/>
<path fill-rule="evenodd" clip-rule="evenodd" d="M229.871 281.178C219.061 280.331 206.541 276.854 195.306 272.111C181.901 266.45 170.35 258.948 165.526 252.045C164.972 251.254 165.166 250.163 165.957 249.608C166.749 249.056 167.841 249.249 168.394 250.04C172.96 256.571 183.983 263.531 196.667 268.886C207.55 273.481 219.672 276.869 230.143 277.688C231.107 277.764 231.827 278.608 231.751 279.57C231.677 280.533 230.833 281.253 229.871 281.178Z" fill="#CC7028"/>
<path fill-rule="evenodd" clip-rule="evenodd" d="M205.304 272.968C205.554 273.854 205.072 274.784 204.203 275.091C191.368 279.633 178.138 276.011 168.169 267.523C158.934 259.659 152.518 247.612 151.876 234.128C151.844 233.442 152.215 232.801 152.825 232.488C153.436 232.174 154.173 232.247 154.712 232.673C171.625 246.062 185.097 248.941 194.178 255.856C199.193 259.673 202.962 264.641 205.304 272.968ZM201.448 272.305C199.347 265.836 196.194 261.789 192.057 258.64C183.544 252.157 171.179 249.211 155.736 237.856C157.243 248.741 162.795 258.349 170.439 264.857C179.05 272.191 190.336 275.587 201.448 272.305Z" fill="#CC7028"/>
<path fill-rule="evenodd" clip-rule="evenodd" d="M206.787 309.271C200.351 308.681 193.883 310.199 188.014 312.762C181.645 315.542 175.976 319.563 171.807 323.544C171.108 324.211 169.999 324.186 169.332 323.487C168.665 322.788 168.69 321.679 169.389 321.012C173.82 316.781 179.844 312.509 186.613 309.554C193.018 306.758 200.084 305.142 207.105 305.785C208.068 305.874 208.778 306.726 208.689 307.688C208.601 308.65 207.749 309.359 206.787 309.271Z" fill="#CC7028"/>
<path fill-rule="evenodd" clip-rule="evenodd" d="M187.083 311.475C187.499 311.809 187.74 312.313 187.74 312.845C187.729 319.424 184.9 324.743 179.21 328.774C173.679 332.695 165.315 335.388 154.084 336.752C153.452 336.83 152.827 336.557 152.453 336.039C152.081 335.521 152.019 334.843 152.291 334.266C157.655 322.945 163.011 315.317 168.254 311.314C171.416 308.9 174.572 307.748 177.693 307.765C180.838 307.784 183.979 308.993 187.083 311.475ZM184.218 313.691C182.047 312.109 179.872 311.278 177.672 311.266C175.252 311.251 172.831 312.224 170.38 314.096C165.909 317.507 161.436 323.773 156.881 332.839C165.782 331.482 172.558 329.2 177.187 325.92C181.617 322.779 183.974 318.709 184.218 313.691Z" fill="#CC7028"/>
<path fill-rule="evenodd" clip-rule="evenodd" d="M211.103 344.437C210.231 345.722 208.69 346.478 206.751 346.586C204.181 346.728 200.823 345.714 198.168 343.926C195.649 342.228 193.806 339.843 193.54 337.253C193.36 335.513 193.839 333.641 195.368 331.763C196.895 329.887 198.598 329.023 200.282 328.816C202.141 328.589 204.03 329.181 205.741 330.348C208.618 332.31 210.977 335.93 211.728 339.097C212.223 341.191 212.007 343.105 211.103 344.437ZM208.208 342.472C208.638 341.835 208.559 340.905 208.322 339.905C207.751 337.493 205.959 334.734 203.77 333.24C202.801 332.581 201.757 332.162 200.708 332.291C199.791 332.404 198.913 332.952 198.082 333.972C197.26 334.981 196.925 335.96 197.021 336.893C197.133 337.97 197.766 338.942 198.616 339.795C200.541 341.719 203.613 343.017 206.026 343.096C206.962 343.126 207.807 343.061 208.208 342.472Z" fill="#CC7028"/>
<path fill-rule="evenodd" clip-rule="evenodd" d="M288.236 369.098C289.442 369.416 290.541 370.633 290.985 372.669C291.666 375.767 291.032 381.061 288.949 384.858C286.914 388.565 283.618 390.874 279.141 389.419C273.889 387.714 273.403 381.396 276.184 376.053C278.616 371.379 283.36 367.808 288.236 369.098ZM287.201 372.446C283.901 371.673 280.94 374.495 279.288 377.669C278.403 379.368 277.891 381.222 277.98 382.845C278.063 384.327 278.699 385.596 280.222 386.09C282.857 386.945 284.683 385.356 285.88 383.175C287.31 380.569 287.912 377.096 287.726 374.572C287.681 373.943 287.587 373.382 287.433 372.923C287.376 372.757 287.256 372.54 287.201 372.446Z" fill="#CC7028"/>
<path fill-rule="evenodd" clip-rule="evenodd" d="M265.471 363.167C267.976 363.935 269.271 365.912 269.495 368.455C269.713 370.92 268.825 373.998 267.108 376.646C264.383 380.848 259.666 383.865 254.538 382.2C249.857 380.679 249.265 375.949 251.494 371.322C252.905 368.395 255.431 365.576 258.327 364.046C260.591 362.851 263.073 362.429 265.471 363.167ZM264.444 366.513C261.203 365.516 257.86 368.007 255.775 370.941C254.659 372.51 253.893 374.254 253.767 375.813C253.656 377.189 254.142 378.391 255.619 378.871C259.163 380.022 262.288 377.647 264.171 374.742C265.43 372.8 266.167 370.57 266.009 368.763C265.916 367.713 265.478 366.829 264.444 366.513Z" fill="#CC7028"/>
<path fill-rule="evenodd" clip-rule="evenodd" d="M242.098 355.804C244.063 356.408 245.287 357.822 245.837 359.725C246.63 362.471 245.852 366.444 243.889 369.85C241.186 374.537 236.37 377.977 231.172 376.288C228.499 375.42 227.189 373.438 226.929 370.946C226.664 368.412 227.623 365.238 229.402 362.434C231.013 359.892 233.278 357.662 235.739 356.461C237.787 355.46 239.975 355.15 242.098 355.804ZM241.07 359.148C239.801 358.76 238.499 359.007 237.275 359.605C235.351 360.544 233.617 362.322 232.357 364.307C231.267 366.029 230.527 367.912 230.4 369.589C230.285 371.119 230.733 372.466 232.253 372.96C235.857 374.13 238.984 371.35 240.856 368.101C242.082 365.974 242.79 363.574 242.637 361.636C242.545 360.47 242.136 359.476 241.07 359.148Z" fill="#CC7028"/>
<path fill-rule="evenodd" clip-rule="evenodd" d="M222.237 347.426C224.761 348.202 226.014 350.05 226.258 352.338C226.509 354.71 225.53 357.668 223.618 360.12C220.875 363.635 216.315 366.057 211.321 364.436C209.251 363.764 208.044 362.53 207.453 361.07C206.653 359.098 207.039 356.546 208.415 354.133C210.974 349.644 216.853 345.772 222.237 347.426ZM221.21 350.772C218.039 349.798 214.724 351.747 212.628 354.21C211.711 355.285 211.02 356.478 210.705 357.63C210.482 358.439 210.435 359.221 210.747 359.867C211.019 360.432 211.577 360.839 212.402 361.107C215.859 362.23 218.961 360.399 220.859 357.967C221.94 356.581 222.652 354.986 222.779 353.544C222.89 352.293 222.496 351.167 221.21 350.772Z" fill="#CC7028"/>
<path fill-rule="evenodd" clip-rule="evenodd" d="M287.342 372.482C282.437 371.185 280.353 365.421 280.902 359.939C281.227 356.707 282.442 353.658 284.247 351.845C285.957 350.125 288.164 349.376 290.746 350.214C296.044 351.935 297.118 357.051 295.987 362.102C295.132 365.925 293.017 369.606 291.064 371.299C289.76 372.43 288.415 372.765 287.342 372.482ZM288.133 369.068C288.225 369.022 288.487 368.887 288.645 368.761C289.027 368.455 289.413 368.029 289.793 367.526C291.32 365.499 292.689 362.259 292.875 359.272C293.029 356.769 292.323 354.407 289.666 353.544C288.159 353.054 286.968 353.824 286.109 355.066C285.164 356.432 284.582 358.326 284.384 360.288C284.194 362.194 284.368 364.172 285.004 365.828C285.591 367.36 286.581 368.615 288.133 369.068Z" fill="#CC7028"/>
<path fill-rule="evenodd" clip-rule="evenodd" d="M264.445 366.513C262.001 365.761 260.141 363.907 258.918 361.476C257.421 358.496 256.895 354.639 257.303 351.303C257.976 345.802 261.197 341.942 265.915 343.474C270.953 345.11 273.214 350.432 273.203 355.631C273.197 359.619 271.828 363.428 269.738 365.302C268.276 366.614 266.479 367.136 264.445 366.513ZM265.472 363.167C266.521 363.488 267.36 362.912 268.007 362.01C269.108 360.473 269.7 358.077 269.704 355.623C269.711 351.928 268.414 347.966 264.833 346.803C263.682 346.429 262.788 346.841 262.16 347.681C261.056 349.159 260.597 351.58 260.677 354.07C260.75 356.413 261.324 358.836 262.476 360.671C263.215 361.845 264.195 362.773 265.472 363.167Z" fill="#CC7028"/>
<path fill-rule="evenodd" clip-rule="evenodd" d="M241.069 359.149C238.93 358.492 237.29 356.998 236.159 355.011C234.801 352.62 234.192 349.487 234.298 346.465C234.413 343.127 235.414 339.951 237.05 338.006C238.692 336.054 240.92 335.166 243.639 336.049C248.793 337.724 250.812 343.239 250.437 348.566C250.16 352.499 248.567 356.217 246.358 358.03C244.836 359.277 243.036 359.754 241.069 359.149ZM242.096 355.803C243.167 356.133 244.068 355.554 244.799 354.647C246.013 353.141 246.773 350.767 246.945 348.321C247.208 344.595 246.161 340.549 242.558 339.378C241.385 338.997 240.436 339.416 239.728 340.258C238.512 341.704 237.882 344.104 237.795 346.586C237.712 348.951 238.139 351.412 239.202 353.279C239.878 354.47 240.818 355.41 242.096 355.803Z" fill="#CC7028"/>
<path fill-rule="evenodd" clip-rule="evenodd" d="M221.094 350.733C219.689 350.189 218.451 348.849 217.607 346.976C216.357 344.199 215.912 340.217 216.545 337.012C217.043 334.485 218.238 332.451 219.979 331.489C221.235 330.795 222.804 330.577 224.723 331.2C230.049 332.93 231.72 337.916 231.022 342.512C230.576 345.455 229.134 348.185 227.208 349.717C225.468 351.1 223.353 351.604 221.094 350.733ZM222.354 347.466C223.345 347.848 224.267 347.585 225.029 346.978C226.351 345.926 227.256 344.008 227.562 341.988C228.016 338.997 227.108 335.656 223.642 334.528C222.894 334.286 222.273 334.264 221.766 334.504C221.189 334.776 220.798 335.338 220.495 336.01C220.041 337.013 219.818 338.263 219.765 339.566C219.688 341.511 220.004 343.579 220.657 345.207C221.085 346.269 221.589 347.171 222.354 347.466Z" fill="#CC7028"/>
<path fill-rule="evenodd" clip-rule="evenodd" d="M122.416 259.902C122.492 259.164 123.025 258.554 123.745 258.38C130.159 256.832 135.763 256.15 140.552 256.314C145.029 256.467 148.818 257.361 151.93 258.953C157.416 261.759 160.573 265.987 161.125 270.909C161.603 275.177 160.104 280.05 156.175 285.058C152.362 289.915 147.503 292.802 142.698 293.749C136.919 294.887 131.205 293.246 127.281 288.852C124.937 286.229 123.316 282.465 122.509 277.52C121.733 272.777 121.696 266.904 122.416 259.902ZM125.777 261.499C125.219 267.591 125.276 272.743 125.964 276.955C126.642 281.113 127.92 284.315 129.892 286.521C132.975 289.973 137.481 291.209 142.021 290.315C146.096 289.512 150.187 287.017 153.422 282.896C156.657 278.775 158.041 274.812 157.646 271.299C157.214 267.457 154.619 264.258 150.337 262.069C147.63 260.684 144.325 259.946 140.432 259.812C136.214 259.667 131.33 260.235 125.777 261.499Z" fill="#CC7028"/>
<path fill-rule="evenodd" clip-rule="evenodd" d="M123.274 277.322C126.458 274.007 132.987 271.029 139.889 269.331C146.647 267.67 153.735 267.234 158.286 268.647C159.209 268.934 159.725 269.916 159.439 270.837C159.152 271.761 158.171 272.277 157.248 271.989C153.159 270.72 146.796 271.237 140.725 272.729C134.551 274.249 128.647 276.78 125.8 279.746C125.13 280.442 124.021 280.465 123.326 279.796C122.628 279.128 122.606 278.02 123.274 277.322Z" fill="#CC7028"/>
<path fill-rule="evenodd" clip-rule="evenodd" d="M137.485 257.931C139.158 260.698 139.87 262.762 140.005 264.748C140.15 266.873 139.614 268.933 138.696 271.755C138.398 272.674 137.41 273.176 136.491 272.878C135.573 272.579 135.069 271.59 135.369 270.672C136.115 268.376 136.631 266.714 136.513 264.986C136.409 263.449 135.784 261.881 134.49 259.743C133.99 258.916 134.255 257.84 135.081 257.34C135.908 256.84 136.985 257.105 137.485 257.931Z" fill="#CC7028"/>
<path fill-rule="evenodd" clip-rule="evenodd" d="M160.01 279.1C165.571 282.849 165.322 287.788 162.788 289.983C160.721 291.772 156.489 292.223 151.596 288.238C150.847 287.629 150.735 286.526 151.344 285.776C151.954 285.027 153.057 284.915 153.805 285.525C155.432 286.85 156.924 287.564 158.202 287.771C159.171 287.925 159.976 287.788 160.497 287.336C160.987 286.913 161.127 286.226 160.944 285.481C160.661 284.332 159.709 283.118 158.053 282.002C157.252 281.462 157.041 280.373 157.581 279.574C158.12 278.772 159.21 278.56 160.01 279.1Z" fill="#CC7028"/>
<path fill-rule="evenodd" clip-rule="evenodd" d="M186.034 223.169C188.163 228.377 190.382 232.227 192.742 234.686C194.896 236.929 197.119 237.937 199.496 237.505C201.365 237.164 202.852 235.419 204.241 232.549C205.661 229.625 206.855 225.59 207.853 220.448C208.038 219.501 208.956 218.88 209.905 219.065C210.853 219.248 211.474 220.168 211.288 221.116C209.963 227.946 208.259 232.951 206.247 236.158C204.46 239.005 202.369 240.539 200.121 240.949C196.672 241.576 193.343 240.366 190.217 237.109C187.626 234.409 185.134 230.214 182.793 224.494C182.428 223.6 182.856 222.578 183.75 222.213C184.644 221.846 185.667 222.276 186.034 223.169Z" fill="#CC7028"/>
<path fill-rule="evenodd" clip-rule="evenodd" d="M200.476 172.307C200.65 172.229 201.771 171.726 202.504 171.266C204.271 170.15 206.159 168.717 206.832 168.383C208.615 167.495 210.304 167.266 211.95 167.526C213.479 167.768 214.98 168.447 216.483 169.49C220.042 171.963 221.735 176.197 221.867 181.326C222.007 186.74 220.409 193.186 217.76 199.293C214.716 206.314 210.291 212.877 205.657 216.927C202.73 219.485 199.686 221.049 196.834 221.295C194.011 221.539 190.968 220.709 187.92 219.025C182.854 216.226 177.719 211.033 173.595 205.065C169.554 199.216 166.487 192.631 165.347 186.906C164.668 183.499 164.673 180.376 165.468 177.828C166.173 175.575 167.651 174.108 169.573 173.332C171.829 172.423 174.789 172.519 177.795 173.61C178.688 173.934 180.253 174.665 181.815 174.742C182.715 174.788 183.627 174.564 184.226 173.581C186.762 169.411 188.923 168.265 190.749 168.228C192.039 168.201 193.305 168.741 194.642 169.572C196.211 170.547 197.957 172.011 200.476 172.307ZM187.215 175.4C186.094 177.244 184.529 178.01 182.869 178.202C180.543 178.469 177.958 177.391 176.602 176.901C174.866 176.271 173.157 176.037 171.714 176.332C170.345 176.612 169.262 177.422 168.81 178.872C167.969 181.559 168.317 185.022 169.403 188.759C170.763 193.428 173.306 198.491 176.475 203.075C179.673 207.703 183.507 211.851 187.427 214.591C190.527 216.758 193.654 218.058 196.532 217.808C198.755 217.617 201.072 216.285 203.355 214.292C207.655 210.533 211.724 204.416 214.549 197.9C216.98 192.294 218.498 186.386 218.369 181.417C218.269 177.532 217.182 174.236 214.487 172.365C213.46 171.652 212.45 171.147 211.406 170.984C210.434 170.832 209.442 170.992 208.389 171.516C207.547 171.934 204.753 174.152 202.769 175.146C201.74 175.66 200.82 175.863 200.217 175.8C197.49 175.515 195.43 174.248 193.656 173.097C192.618 172.423 191.771 171.708 190.82 171.726C190.384 171.736 189.966 171.984 189.469 172.439C188.782 173.066 188.05 174.028 187.215 175.4Z" fill="#CC7028"/>
<path fill-rule="evenodd" clip-rule="evenodd" d="M224.934 176.141C224.29 176.167 223.597 176.331 222.854 176.61C222.12 176.886 221.348 177.275 220.53 177.771C219.705 178.272 218.627 178.009 218.127 177.182C217.626 176.357 217.889 175.279 218.715 174.778C219.976 174.014 221.159 173.462 222.259 173.112C223.258 172.797 224.197 172.642 225.075 172.637C226.18 172.631 226.991 173.1 227.616 173.871C228.121 174.492 228.473 175.404 228.822 176.28C228.915 176.514 229.098 176.86 229.196 177.037C229.456 176.951 229.629 176.745 229.8 176.535C230.042 176.233 230.253 175.891 230.469 175.549C230.995 174.718 231.553 173.903 232.291 173.314C233.179 172.604 234.299 172.154 235.894 172.317C237.549 172.486 238.495 173.158 239.138 173.996C239.696 174.727 239.984 175.654 240.243 176.603C240.401 177.18 240.441 177.838 241.059 178.15C241.207 178.225 241.355 178.119 241.52 178.058C241.989 177.889 242.475 177.608 242.987 177.328C244.371 176.573 245.889 175.874 247.499 175.967C248.751 176.039 250.095 176.539 251.476 177.92C253.634 180.078 254.156 183.52 253.47 187.276C252.697 191.501 250.456 196.125 248.153 199.242C245.68 202.592 238.088 212.616 225.183 218.394C217.388 221.885 207.662 223.837 195.955 221.851C188.644 224.868 180.508 226 172.734 225.983C163.693 225.961 155.149 224.388 149.001 222.48C146.671 221.756 143.224 219.962 140.876 217.48C139.14 215.648 138.012 213.448 138.067 211.063C138.106 209.369 138.476 208.163 139.003 207.222C139.646 206.076 140.544 205.313 141.531 204.59C142.417 203.944 143.417 203.353 144.105 202.09C144.106 202.089 144.106 202.089 144.106 202.089C144.346 201.649 144.268 201.041 144.238 200.375C144.174 198.98 144.026 197.406 144.321 195.934C144.568 194.703 145.094 193.534 146.103 192.524C147.163 191.465 148.203 191.179 149.232 191.234C150.171 191.288 151.143 191.723 152.179 192.242C153.211 192.756 154.385 193.421 155.966 192.591C156.327 192.4 156.602 191.947 156.92 191.466C157.571 190.483 158.196 189.311 158.859 188.406C159.302 187.802 159.771 187.301 160.251 186.952C160.653 186.661 161.299 186.374 162.222 186.181C163.081 186.003 164.254 185.876 165.744 185.817C166.71 185.779 167.525 186.531 167.563 187.495C167.601 188.461 166.849 189.276 165.885 189.314C165.047 189.347 164.325 189.402 163.719 189.48C163.03 189.568 162.545 189.612 162.305 189.785L162.304 189.787C161.918 190.066 161.595 190.572 161.25 191.113C160.581 192.16 159.93 193.36 159.236 194.238C158.721 194.889 158.166 195.387 157.598 195.688C157.597 195.687 157.595 195.688 157.595 195.688C156.102 196.474 154.788 196.6 153.605 196.429C152.43 196.26 151.39 195.761 150.433 195.282C150.097 195.114 149.775 194.95 149.458 194.834C149.162 194.727 148.878 194.699 148.578 194.999C148.101 195.476 147.869 196.039 147.753 196.621C147.461 198.079 147.75 199.653 147.754 200.961C147.759 202.047 147.593 203.005 147.179 203.763C146.47 205.067 145.575 205.924 144.647 206.642C143.875 207.241 143.067 207.697 142.443 208.395C141.916 208.987 141.597 209.801 141.566 211.144L141.567 211.145C141.522 213.023 142.806 214.636 144.342 215.95C146.165 217.51 148.427 218.636 150.038 219.136L150.04 219.137C155.92 220.961 164.093 222.462 172.743 222.482C180.222 222.5 188.065 221.413 195.065 218.43C195.379 218.296 195.723 218.256 196.059 218.317C207.173 220.302 216.388 218.496 223.752 215.199C235.89 209.765 243.012 200.315 245.338 197.162C247.363 194.422 249.348 190.361 250.027 186.647C250.481 184.159 250.43 181.824 249.001 180.395C248.167 179.56 247.415 179.358 246.69 179.516C245.255 179.827 243.967 180.877 242.786 181.321C241.622 181.759 240.522 181.8 239.483 181.276C238.631 180.845 238.06 180.246 237.65 179.554C237.259 178.894 237.033 178.132 236.826 177.376C236.639 176.69 236.585 175.905 235.538 175.799C235.073 175.752 234.735 175.842 234.475 176.047C233.705 176.664 233.301 177.699 232.709 178.494C231.979 179.471 231.088 180.216 229.839 180.485C228.664 180.737 227.799 180.449 227.108 179.914C226.388 179.355 225.877 178.366 225.466 177.307C225.357 177.032 225.253 176.755 225.135 176.498C225.085 176.389 224.994 176.235 224.934 176.141Z" fill="#CC7028"/>
<path fill-rule="evenodd" clip-rule="evenodd" d="M184.876 196.621C186.009 202.563 187.659 207.437 189.853 211.235C191.493 214.071 193.433 216.293 195.691 217.878C197.533 216.748 198.776 214.399 199.64 210.977C200.612 207.121 201.013 201.983 200.868 195.567C200.847 194.6 201.613 193.8 202.578 193.777C203.545 193.756 204.345 194.522 204.368 195.488C204.557 203.918 203.805 210.274 202.187 214.564C200.803 218.233 198.757 220.501 196.216 221.516C195.702 221.72 195.12 221.67 194.649 221.38C191.591 219.495 188.973 216.706 186.822 212.986C184.461 208.9 182.657 203.668 181.438 197.277C181.257 196.327 181.88 195.41 182.83 195.229C183.778 195.048 184.695 195.671 184.876 196.621Z" fill="#CC7028"/>
<path fill-rule="evenodd" clip-rule="evenodd" d="M163.834 207.595C168.253 212.013 173.054 215.117 178.253 216.888C183.532 218.685 189.214 219.103 195.3 218.16C195.442 218.139 195.585 218.134 195.73 218.147C201.909 218.723 207.597 217.289 212.796 213.845C217.305 210.855 221.441 206.378 225.228 200.44C225.748 199.625 226.831 199.387 227.645 199.906C228.46 200.425 228.699 201.508 228.18 202.322C224.09 208.733 219.595 213.537 214.73 216.762C208.904 220.622 202.534 222.251 195.62 221.651C189.022 222.643 182.857 222.153 177.125 220.2C171.446 218.267 166.186 214.897 161.359 210.069C160.676 209.386 160.676 208.278 161.359 207.595C162.042 206.912 163.151 206.912 163.834 207.595Z" fill="#CC7028"/>
</g>
</svg>
