<svg width="347" height="496" viewBox="0 0 347 496" fill="none" xmlns="http://www.w3.org/2000/svg">
<g opacity="0.3">
<path fill-rule="evenodd" clip-rule="evenodd" d="M241.272 201.88C259.999 212.27 275.847 227.84 289.937 245.511C310.922 271.83 328.005 302.804 344.745 328.524C351.369 338.703 361.033 351.791 375.061 366.168C384.916 376.266 396.925 387.001 411.551 397.809C412.327 398.382 413.424 398.219 413.998 397.441C414.573 396.664 414.407 395.567 413.632 394.994C399.175 384.312 387.306 373.704 377.565 363.724C363.737 349.551 354.209 336.649 347.679 326.615C330.881 300.808 313.73 269.737 292.674 243.329C278.291 225.29 262.085 209.426 242.97 198.819C242.125 198.349 241.059 198.655 240.591 199.501C240.122 200.344 240.426 201.411 241.272 201.88Z" fill="#CC7028"/>
<path fill-rule="evenodd" clip-rule="evenodd" d="M197.096 257.542C209.733 283.84 223.958 298.451 240.136 308.12C253.244 315.954 267.654 320.526 283.608 325.413C310.846 333.755 342.64 343.062 380.144 371.861C380.909 372.449 382.009 372.305 382.598 371.539C383.185 370.773 383.04 369.673 382.276 369.085C344.335 339.952 312.187 330.506 284.633 322.067C268.966 317.266 254.803 312.807 241.932 305.115C226.244 295.739 212.505 281.526 200.25 256.026C199.832 255.156 198.785 254.788 197.915 255.207C197.043 255.626 196.677 256.672 197.096 257.542Z" fill="#CC7028"/>
<path fill-rule="evenodd" clip-rule="evenodd" d="M344.385 216.217C359.278 246.227 363.309 268.397 365.564 288.28C367.527 305.599 368.178 321.205 373.321 338.673C377.543 353.01 384.778 368.598 398.242 387.383C398.805 388.168 399.9 388.349 400.684 387.786C401.469 387.223 401.65 386.128 401.087 385.343C387.909 366.961 380.81 351.716 376.679 337.684C371.596 320.425 370.983 304.999 369.042 287.885C366.749 267.682 362.652 245.155 347.522 214.66C347.092 213.796 346.041 213.442 345.176 213.872C344.311 214.3 343.957 215.351 344.385 216.217Z" fill="#CC7028"/>
<path fill-rule="evenodd" clip-rule="evenodd" d="M229.131 389.986C244.051 390.673 255.843 387.871 265.886 383.401C280.11 377.071 290.791 367.349 301.93 359.46C312.996 351.621 324.53 345.627 340.813 347.134C341.774 347.224 342.627 346.515 342.715 345.553C342.805 344.592 342.096 343.739 341.135 343.649C323.884 342.052 311.632 348.298 299.907 356.604C288.945 364.368 278.459 373.973 264.464 380.204C254.854 384.48 243.568 387.145 229.293 386.489C228.326 386.445 227.509 387.193 227.463 388.158C227.419 389.122 228.166 389.942 229.131 389.986Z" fill="#CC7028"/>
<path fill-rule="evenodd" clip-rule="evenodd" d="M301.311 358.197C301.252 357.444 300.717 356.814 299.984 356.634C289.573 354.067 281.629 354.595 275.142 356.814C265.343 360.17 258.866 367.465 252.216 374.125C245.909 380.439 239.441 386.174 229.159 386.489C228.349 386.514 227.663 387.089 227.498 387.882C227.334 388.675 227.735 389.477 228.467 389.822C247.659 398.847 262.816 398.82 274.195 394.572C293.542 387.347 302.056 367.786 301.311 358.197ZM297.859 359.727C297.741 368.769 289.717 385.041 272.97 391.292C263.414 394.862 251.04 395.131 235.651 389.111C243.464 387.136 249.167 382.131 254.692 376.597C260.978 370.303 267.014 363.297 276.276 360.127C281.978 358.175 288.902 357.711 297.859 359.727Z" fill="#CC7028"/>
<path fill-rule="evenodd" clip-rule="evenodd" d="M237.131 245.532C244.471 255.332 251.901 261.178 259.486 265.102C267.958 269.487 276.63 271.445 285.629 273.82C296.954 276.808 308.815 280.486 321.442 291.014C322.062 291.533 322.957 291.558 323.606 291.074C324.256 290.592 324.489 289.728 324.172 288.983C314.335 265.907 312.828 246.312 312.116 228.78C311.502 213.68 311.45 200.083 307.416 187.108C304.958 179.197 301.032 171.516 294.629 163.875C294.008 163.133 292.905 163.036 292.164 163.657C291.424 164.276 291.326 165.382 291.946 166.122C298.018 173.366 301.743 180.648 304.074 188.148C308.02 200.84 308.019 214.149 308.62 228.921C309.283 245.275 310.65 263.386 318.546 284.362C307.345 276.394 296.731 273.13 286.523 270.435C277.773 268.126 269.331 266.257 261.094 261.993C253.908 258.276 246.886 252.717 239.931 243.433C239.353 242.66 238.256 242.503 237.482 243.082C236.709 243.661 236.552 244.759 237.131 245.532Z" fill="#CC7028"/>
<path fill-rule="evenodd" clip-rule="evenodd" d="M290.553 274.019C291.13 273.525 291.324 272.718 291.033 272.016C287.618 263.797 283.67 259.589 279.007 256.978C275.323 254.916 271.157 253.877 266.348 252.698C259.048 250.909 250.189 248.733 239.209 241.414C238.655 241.044 237.936 241.022 237.36 241.358C236.782 241.693 236.446 242.329 236.494 242.995C237.502 256.995 247.309 274.599 261.123 280.35C269.735 283.935 279.921 283.101 290.553 274.019ZM287.293 272.176C275.698 281.494 264.8 279.973 256.421 273.585C248.072 267.219 242.172 256.217 240.435 246.339C250.419 252.372 258.628 254.409 265.515 256.098C269.986 257.192 273.872 258.113 277.296 260.031C281.177 262.204 284.411 265.697 287.293 272.176Z" fill="#CC7028"/>
<path fill-rule="evenodd" clip-rule="evenodd" d="M259.167 316.627C259.7 316.297 260.017 315.708 259.995 315.081C259.609 303.515 255.85 295.919 250.134 290.088C244.661 284.501 237.326 280.569 229.348 276.324C219.714 271.198 209.117 265.582 199.963 255.601C199.492 255.088 198.759 254.902 198.1 255.132C197.44 255.359 196.98 255.958 196.927 256.654C195.31 278.165 204.965 300.912 219.427 312.972C230.754 322.416 244.977 325.42 259.167 316.627ZM256.453 314.175C244.008 321.413 231.601 318.566 221.669 310.284C208.865 299.607 200.093 280.066 200.252 260.921C209.004 269.435 218.745 274.646 227.703 279.414C235.341 283.477 242.394 287.19 247.637 292.538C252.641 297.644 255.927 304.271 256.453 314.175Z" fill="#CC7028"/>
<path fill-rule="evenodd" clip-rule="evenodd" d="M282.473 231.908C282.094 221.072 279.16 208.413 274.906 196.984C269.828 183.347 262.832 171.484 256.143 166.366C255.377 165.779 254.278 165.925 253.69 166.692C253.105 167.46 253.25 168.558 254.017 169.145C260.345 173.989 266.822 185.302 271.626 198.205C275.746 209.276 278.608 221.533 278.975 232.03C279.009 232.996 279.821 233.752 280.786 233.717C281.751 233.684 282.507 232.872 282.473 231.908Z" fill="#CC7028"/>
<path fill-rule="evenodd" clip-rule="evenodd" d="M275.332 207.009C276.206 207.297 277.156 206.856 277.5 206.001C282.592 193.373 279.544 180 271.493 169.674C264.035 160.109 252.276 153.179 238.832 151.956C238.149 151.894 237.492 152.237 237.153 152.833C236.813 153.43 236.854 154.169 237.256 154.726C249.903 172.202 252.199 185.785 258.715 195.155C262.313 200.331 267.113 204.311 275.332 207.009ZM274.836 203.128C268.463 200.75 264.556 197.425 261.589 193.156C255.479 184.372 253.069 171.891 242.391 155.972C253.2 157.948 262.56 163.91 268.732 171.827C275.688 180.746 278.594 192.168 274.836 203.128Z" fill="#CC7028"/>
<path fill-rule="evenodd" clip-rule="evenodd" d="M311.536 210.057C311.224 203.602 313.02 197.205 315.834 191.452C318.886 185.209 323.148 179.719 327.305 175.726C328.001 175.056 328.024 173.947 327.354 173.251C326.685 172.554 325.576 172.531 324.879 173.201C320.461 177.445 315.934 183.279 312.69 189.914C309.619 196.193 307.7 203.182 308.04 210.225C308.088 211.19 308.907 211.937 309.873 211.889C310.837 211.843 311.583 211.022 311.536 210.057Z" fill="#CC7028"/>
<path fill-rule="evenodd" clip-rule="evenodd" d="M314.588 190.467C314.904 190.897 315.397 191.16 315.928 191.182C322.502 191.455 327.938 188.858 332.211 183.348C336.366 177.991 339.418 169.751 341.265 158.589C341.37 157.961 341.124 157.325 340.624 156.929C340.122 156.535 339.447 156.444 338.859 156.691C327.317 161.562 319.465 166.583 315.24 171.649C312.691 174.703 311.404 177.807 311.287 180.926C311.17 184.068 312.242 187.259 314.588 190.467ZM316.926 187.701C315.438 185.463 314.703 183.255 314.785 181.056C314.875 178.637 315.951 176.261 317.927 173.893C321.528 169.573 327.981 165.374 337.236 161.215C335.495 170.049 332.923 176.72 329.446 181.203C326.117 185.494 321.95 187.673 316.926 187.701Z" fill="#CC7028"/>
<path fill-rule="evenodd" clip-rule="evenodd" d="M346.483 215.886C347.806 215.07 348.627 213.564 348.819 211.631C349.072 209.07 348.203 205.67 346.531 202.941C344.943 200.351 342.641 198.408 340.064 198.03C338.334 197.774 336.443 198.172 334.5 199.619C332.56 201.064 331.624 202.728 331.345 204.401C331.037 206.248 331.548 208.162 332.64 209.922C334.475 212.881 337.991 215.393 341.122 216.28C343.192 216.865 345.114 216.731 346.483 215.886ZM344.645 212.909C343.991 213.312 343.065 213.192 342.076 212.912C339.691 212.238 337.012 210.329 335.614 208.077C334.997 207.081 334.624 206.019 334.798 204.977C334.95 204.065 335.535 203.212 336.59 202.426C337.634 201.648 338.627 201.355 339.555 201.492C340.625 201.65 341.57 202.325 342.385 203.211C344.224 205.216 345.389 208.342 345.364 210.756C345.353 211.692 345.251 212.534 344.645 212.909Z" fill="#CC7028"/>
<path fill-rule="evenodd" clip-rule="evenodd" d="M348.99 227.139C349.657 229.694 351.448 231.026 353.724 231.368C356.083 231.721 359.081 230.871 361.612 229.067C365.243 226.478 367.859 222.026 366.455 216.967C365.873 214.869 364.693 213.611 363.259 212.957C361.323 212.073 358.757 212.349 356.287 213.619C351.692 215.982 347.57 221.689 348.99 227.139ZM352.377 226.258C351.541 223.047 353.631 219.819 356.182 217.831C357.296 216.961 358.518 216.323 359.682 216.057C360.5 215.87 361.284 215.857 361.915 216.196C362.467 216.492 362.85 217.067 363.083 217.904C364.055 221.405 362.093 224.425 359.58 226.217C358.149 227.238 356.525 227.88 355.079 227.945C353.824 228.001 352.716 227.559 352.377 226.258Z" fill="#CC7028"/>
<path fill-rule="evenodd" clip-rule="evenodd" d="M371.213 293.264C370.129 288.307 364.461 285.977 358.96 286.289C355.717 286.474 352.618 287.556 350.729 289.282C348.937 290.916 348.094 293.088 348.82 295.704C350.311 301.071 355.375 302.365 360.47 301.453C364.326 300.763 368.095 298.809 369.871 296.931C371.057 295.677 371.45 294.348 371.213 293.264ZM367.768 293.906C367.719 293.997 367.573 294.252 367.44 294.405C367.118 294.774 366.676 295.141 366.156 295.499C364.065 296.937 360.77 298.165 357.777 298.221C355.27 298.268 352.94 297.46 352.193 294.769C351.768 293.242 352.589 292.086 353.867 291.281C355.273 290.396 357.189 289.896 359.159 289.783C361.071 289.675 363.04 289.935 364.667 290.641C366.172 291.293 367.383 292.337 367.768 293.906Z" fill="#CC7028"/>
<path fill-rule="evenodd" clip-rule="evenodd" d="M366.238 270.13C365.593 267.656 363.82 265.718 361.445 264.391C358.532 262.767 354.702 262.075 351.351 262.339C345.825 262.775 341.83 265.826 343.158 270.605C344.575 275.71 349.794 278.198 354.988 278.411C358.973 278.577 362.838 277.374 364.801 275.367C366.174 273.962 366.773 272.189 366.238 270.13ZM362.851 271.012C363.127 272.074 362.515 272.887 361.586 273.495C360.003 274.529 357.584 275.017 355.132 274.914C351.44 274.762 347.537 273.296 346.53 269.668C346.206 268.502 346.656 267.626 347.523 267.036C349.047 265.996 351.486 265.642 353.97 265.829C356.307 266.003 358.703 266.681 360.487 267.911C361.628 268.7 362.513 269.719 362.851 271.012Z" fill="#CC7028"/>
<path fill-rule="evenodd" clip-rule="evenodd" d="M359.889 246.46C359.324 244.294 357.903 242.592 355.966 241.376C353.636 239.916 350.532 239.172 347.509 239.148C344.17 239.119 340.953 239.982 338.939 241.533C336.918 243.089 335.935 245.276 336.7 248.031C338.15 253.253 343.573 255.507 348.912 255.362C352.853 255.255 356.636 253.824 358.543 251.696C359.855 250.229 360.408 248.451 359.889 246.46ZM356.501 247.342C356.785 248.426 356.168 249.301 355.23 249.992C353.673 251.14 351.269 251.797 348.818 251.863C345.084 251.966 341.086 250.745 340.072 247.095C339.742 245.906 340.202 244.976 341.073 244.305C342.571 243.152 344.995 242.626 347.479 242.647C349.845 242.666 352.286 243.199 354.105 244.341C355.266 245.068 356.165 246.048 356.501 247.342Z" fill="#CC7028"/>
<path fill-rule="evenodd" clip-rule="evenodd" d="M352.342 226.14C351.86 224.713 350.575 223.418 348.739 222.494C346.019 221.125 342.06 220.509 338.831 221.003C336.285 221.391 334.201 222.498 333.165 224.196C332.417 225.421 332.132 226.979 332.671 228.923C334.17 234.319 339.08 236.203 343.702 235.704C346.661 235.386 349.45 234.062 351.064 232.204C352.521 230.526 353.115 228.435 352.342 226.14ZM349.024 227.257C349.364 228.264 349.06 229.174 348.422 229.909C347.314 231.184 345.359 232.006 343.327 232.225C340.319 232.549 337.02 231.498 336.043 227.986C335.833 227.229 335.838 226.607 336.1 226.111C336.396 225.547 336.975 225.18 337.659 224.906C338.681 224.496 339.939 224.327 341.244 224.33C343.19 224.338 345.243 224.742 346.841 225.465C347.884 225.938 348.763 226.481 349.024 227.257Z" fill="#CC7028"/>
<path fill-rule="evenodd" clip-rule="evenodd" d="M265.854 123.635C265.112 123.679 264.48 124.185 264.276 124.897C262.453 131.238 261.53 136.808 261.486 141.599C261.446 146.079 262.176 149.903 263.632 153.081C266.198 158.682 270.287 162.019 275.181 162.782C279.424 163.445 284.357 162.157 289.53 158.448C294.547 154.848 297.641 150.118 298.794 145.358C300.18 139.634 298.788 133.854 294.567 129.744C292.047 127.289 288.356 125.507 283.451 124.488C278.746 123.508 272.88 123.218 265.854 123.635ZM267.304 127.062C273.414 126.767 278.559 127.046 282.738 127.915C286.863 128.772 290.006 130.187 292.125 132.252C295.441 135.482 296.482 140.036 295.392 144.534C294.414 148.57 291.745 152.55 287.489 155.604C283.231 158.659 279.213 159.87 275.72 159.324C271.9 158.727 268.816 155.996 266.814 151.623C265.547 148.86 264.952 145.526 264.986 141.63C265.024 137.41 265.802 132.555 267.304 127.062Z" fill="#CC7028"/>
<path fill-rule="evenodd" clip-rule="evenodd" d="M283.22 125.243C279.771 128.281 276.514 134.676 274.52 141.498C272.569 148.178 271.828 155.241 273.043 159.849C273.29 160.783 274.248 161.341 275.182 161.095C276.116 160.848 276.674 159.89 276.427 158.956C275.335 154.816 276.126 148.482 277.879 142.481C279.664 136.377 282.447 130.588 285.533 127.871C286.258 127.233 286.328 126.126 285.69 125.402C285.053 124.676 283.946 124.606 283.22 125.243Z" fill="#CC7028"/>
<path fill-rule="evenodd" clip-rule="evenodd" d="M263.234 138.604C265.926 140.395 267.958 141.196 269.936 141.417C272.052 141.653 274.134 141.207 276.992 140.411C277.924 140.153 278.468 139.188 278.21 138.257C277.95 137.326 276.984 136.78 276.054 137.04C273.729 137.686 272.046 138.13 270.324 137.938C268.793 137.768 267.254 137.076 265.173 135.691C264.369 135.156 263.282 135.374 262.747 136.178C262.212 136.982 262.43 138.069 263.234 138.604Z" fill="#CC7028"/>
<path fill-rule="evenodd" clip-rule="evenodd" d="M283.412 162.022C286.918 167.739 291.862 167.704 294.165 165.267C296.042 163.279 296.674 159.071 292.905 154.01C292.329 153.235 291.231 153.076 290.455 153.652C289.681 154.229 289.521 155.326 290.098 156.1C291.352 157.783 292.001 159.304 292.152 160.59C292.265 161.564 292.093 162.363 291.619 162.864C291.175 163.335 290.483 163.446 289.747 163.23C288.611 162.898 287.439 161.895 286.395 160.192C285.891 159.368 284.812 159.111 283.99 159.615C283.166 160.12 282.907 161.2 283.412 162.022Z" fill="#CC7028"/>
<path fill-rule="evenodd" clip-rule="evenodd" d="M226.41 185.609C231.521 187.962 235.272 190.344 237.627 192.808C239.775 195.057 240.685 197.321 240.151 199.677C239.731 201.531 237.922 202.94 234.995 204.205C232.013 205.497 227.93 206.515 222.75 207.291C221.796 207.435 221.136 208.325 221.279 209.281C221.421 210.236 222.314 210.897 223.269 210.752C230.15 209.723 235.224 208.236 238.515 206.364C241.436 204.702 243.059 202.679 243.565 200.45C244.341 197.032 243.275 193.654 240.156 190.39C237.57 187.685 233.487 185.014 227.874 182.429C226.996 182.025 225.956 182.409 225.553 183.287C225.148 184.164 225.533 185.205 226.41 185.609Z" fill="#CC7028"/>
<path fill-rule="evenodd" clip-rule="evenodd" d="M174.972 197.844C174.886 198.015 174.336 199.113 173.845 199.825C172.653 201.543 171.14 203.367 170.777 204.026C169.814 205.769 169.512 207.446 169.701 209.102C169.876 210.639 170.49 212.168 171.468 213.715C173.784 217.377 177.942 219.251 183.06 219.605C188.463 219.978 194.972 218.66 201.187 216.276C208.333 213.538 215.081 209.4 219.328 204.945C222.009 202.132 223.703 199.158 224.072 196.319C224.438 193.509 223.739 190.433 222.188 187.316C219.61 182.134 214.644 176.779 208.86 172.401C203.19 168.112 196.744 164.764 191.073 163.378C187.699 162.552 184.578 162.423 181.998 163.108C179.717 163.714 178.188 165.128 177.33 167.014C176.324 169.229 176.293 172.19 177.252 175.24C177.537 176.147 178.201 177.742 178.21 179.306C178.217 180.207 177.954 181.108 176.946 181.664C172.67 184.019 171.433 186.128 171.317 187.951C171.234 189.238 171.719 190.526 172.491 191.898C173.398 193.508 174.785 195.315 174.972 197.844ZM178.635 184.729C180.525 183.689 181.358 182.158 181.621 180.508C181.988 178.196 181.023 175.567 180.592 174.191C180.038 172.429 179.878 170.711 180.234 169.283C180.573 167.927 181.429 166.881 182.898 166.491C185.618 165.767 189.063 166.264 192.75 167.511C197.356 169.071 202.304 171.83 206.747 175.193C211.233 178.588 215.212 182.597 217.78 186.631C219.811 189.822 220.975 193.002 220.601 195.867C220.314 198.08 218.884 200.337 216.794 202.532C212.853 206.666 206.566 210.467 199.935 213.008C194.228 215.196 188.261 216.457 183.301 216.114C179.425 215.846 176.179 214.618 174.426 211.845C173.758 210.788 173.297 209.757 173.179 208.707C173.069 207.73 173.272 206.745 173.84 205.716C174.295 204.893 176.631 202.197 177.71 200.257C178.268 199.252 178.51 198.341 178.473 197.736C178.306 194.999 177.129 192.887 176.056 191.065C175.427 189.999 174.749 189.122 174.809 188.172C174.837 187.737 175.103 187.33 175.579 186.853C176.235 186.194 177.228 185.505 178.635 184.729Z" fill="#CC7028"/>
<path fill-rule="evenodd" clip-rule="evenodd" d="M177.748 222.445C177.802 221.802 177.995 221.116 178.306 220.387C178.613 219.665 179.035 218.911 179.566 218.115C180.102 217.312 179.885 216.224 179.081 215.689C178.278 215.152 177.19 215.369 176.654 216.172C175.836 217.399 175.234 218.557 174.837 219.641C174.478 220.625 174.283 221.557 174.241 222.434C174.187 223.538 174.62 224.368 175.363 225.026C175.962 225.557 176.858 225.949 177.719 226.335C177.948 226.438 178.286 226.636 178.459 226.741C178.361 226.997 178.149 227.161 177.931 227.323C177.619 227.552 177.269 227.747 176.917 227.949C176.065 228.439 175.226 228.961 174.606 229.672C173.858 230.529 173.36 231.629 173.454 233.229C173.552 234.89 174.182 235.864 174.991 236.542C175.698 237.131 176.611 237.459 177.549 237.759C178.118 237.942 178.774 238.01 179.059 238.641C179.128 238.792 179.015 238.935 178.947 239.097C178.758 239.558 178.456 240.032 178.155 240.532C177.341 241.882 176.577 243.368 176.6 244.981C176.618 246.235 177.059 247.599 178.379 249.038C180.442 251.288 183.859 251.958 187.641 251.434C191.895 250.844 196.612 248.805 199.825 246.639C203.278 244.312 213.621 237.16 219.95 224.516C223.774 216.879 226.144 207.246 224.665 195.464C227.994 188.29 229.477 180.21 229.795 172.443C230.162 163.41 228.96 154.805 227.318 148.581C226.696 146.222 225.052 142.7 222.674 140.248C220.918 138.435 218.769 137.212 216.384 137.165C214.69 137.13 213.469 137.448 212.506 137.934C211.334 138.527 210.532 139.391 209.768 140.346C209.084 141.203 208.45 142.177 207.159 142.81C207.158 142.811 207.158 142.811 207.158 142.811C206.708 143.032 206.104 142.928 205.44 142.869C204.048 142.745 202.482 142.529 201 142.761C199.759 142.953 198.568 143.428 197.515 144.394C196.412 145.406 196.081 146.434 196.092 147.463C196.105 148.404 196.498 149.395 196.971 150.452C197.441 151.505 198.054 152.707 197.157 154.25C196.951 154.603 196.486 154.857 195.992 155.154C194.982 155.762 193.784 156.336 192.851 156.96C192.228 157.376 191.708 157.823 191.338 158.288C191.03 158.677 190.716 159.31 190.483 160.224C190.268 161.074 190.091 162.241 189.968 163.727C189.888 164.691 190.604 165.537 191.565 165.616C192.529 165.696 193.375 164.98 193.455 164.018C193.525 163.183 193.61 162.463 193.714 161.862C193.832 161.177 193.897 160.695 194.081 160.462L194.082 160.461C194.378 160.087 194.898 159.787 195.453 159.465C196.527 158.843 197.755 158.244 198.661 157.588C199.334 157.102 199.856 156.569 200.181 156.014C200.18 156.013 200.181 156.012 200.181 156.012C201.03 154.553 201.213 153.246 201.094 152.057C200.975 150.876 200.522 149.815 200.084 148.838C199.931 148.495 199.781 148.166 199.679 147.845C199.584 147.545 199.569 147.259 199.881 146.973C200.379 146.516 200.952 146.31 201.538 146.218C203.007 145.99 204.567 146.347 205.873 146.407C206.958 146.459 207.923 146.334 208.698 145.953C210.031 145.301 210.926 144.444 211.683 143.548C212.315 142.802 212.806 142.014 213.53 141.421C214.144 140.92 214.971 140.636 216.314 140.663L216.315 140.665C218.193 140.701 219.749 142.053 220.996 143.645C222.476 145.533 223.503 147.842 223.933 149.473L223.934 149.474C225.503 155.428 226.65 163.658 226.297 172.301C225.991 179.774 224.568 187.562 221.285 194.427C221.138 194.736 221.084 195.078 221.13 195.415C222.633 206.605 220.432 215.734 216.82 222.949C210.867 234.841 201.119 241.548 197.868 243.736C195.044 245.641 190.901 247.449 187.161 247.967C184.656 248.314 182.325 248.162 180.959 246.673C180.161 245.803 179.991 245.043 180.181 244.325C180.553 242.906 181.658 241.664 182.153 240.503C182.641 239.359 182.729 238.262 182.249 237.201C181.856 236.332 181.282 235.735 180.609 235.296C179.966 234.877 179.215 234.618 178.469 234.379C177.791 234.162 177.009 234.074 176.948 233.024C176.921 232.557 177.026 232.223 177.242 231.972C177.891 231.23 178.943 230.87 179.763 230.314C180.771 229.626 181.553 228.768 181.876 227.533C182.178 226.369 181.928 225.492 181.423 224.779C180.896 224.036 179.93 223.483 178.889 223.026C178.62 222.906 178.347 222.79 178.095 222.66C177.989 222.606 177.839 222.508 177.748 222.445Z" fill="#CC7028"/>
<path fill-rule="evenodd" clip-rule="evenodd" d="M199.936 183.307C205.824 184.696 210.623 186.554 214.322 188.91C217.085 190.671 219.221 192.705 220.707 195.029C219.499 196.821 217.099 197.961 213.642 198.676C209.748 199.482 204.597 199.661 198.193 199.239C197.229 199.177 196.396 199.907 196.332 200.871C196.269 201.835 197 202.668 197.963 202.732C206.378 203.285 212.76 202.807 217.116 201.377C220.841 200.152 223.195 198.206 224.319 195.71C224.545 195.206 224.521 194.623 224.25 194.139C222.499 191.003 219.826 188.267 216.202 185.958C212.222 183.423 207.073 181.394 200.74 179.901C199.798 179.679 198.855 180.262 198.634 181.203C198.412 182.143 198.995 183.086 199.936 183.307Z" fill="#CC7028"/>
<path fill-rule="evenodd" clip-rule="evenodd" d="M211.807 162.759C216.031 167.364 218.925 172.295 220.47 177.565C222.037 182.916 222.21 188.611 221.005 194.651C220.978 194.792 220.967 194.935 220.974 195.08C221.283 201.278 219.604 206.899 215.94 211.944C212.758 216.32 208.107 220.259 202.011 223.787C201.175 224.271 200.89 225.343 201.374 226.178C201.856 227.016 202.928 227.301 203.764 226.817C210.345 223.007 215.339 218.724 218.77 214.002C222.879 208.349 224.78 202.054 224.479 195.121C225.755 188.572 225.532 182.392 223.828 176.581C222.142 170.823 219.001 165.424 214.387 160.393C213.734 159.681 212.626 159.633 211.914 160.286C211.202 160.939 211.154 162.047 211.807 162.759Z" fill="#CC7028"/>
</g>
</svg>
