<svg width="48" height="48" viewBox="0 0 48 48" fill="none" xmlns="http://www.w3.org/2000/svg">
<circle cx="24" cy="24" r="24" fill="white"/>
<path fill-rule="evenodd" clip-rule="evenodd" d="M32.4762 20.2783C32.4836 20.4691 32.4861 20.6598 32.4861 20.8506C32.4861 26.6348 28.4172 33.3123 20.9765 33.3123C18.6909 33.3123 16.5656 32.5839 14.7749 31.3438C15.0914 31.3784 15.4129 31.4045 15.7393 31.4045C17.6344 31.4045 19.3799 30.702 20.7644 29.5226C18.9943 29.4965 17.4996 28.2218 16.9841 26.4874C17.2316 26.5394 17.4864 26.5655 17.747 26.5655C18.1146 26.5655 18.4714 26.5135 18.8134 26.4094C16.961 26.0105 15.5658 24.2415 15.5658 22.1169C15.5658 22.0908 15.5658 22.0821 15.5658 22.0648C16.1118 22.3856 16.7366 22.585 17.4001 22.611C16.3132 21.8219 15.5987 20.4777 15.5987 18.9601C15.5987 18.1623 15.7977 17.4078 16.1479 16.7574C18.1425 19.411 21.1245 21.1541 24.4864 21.3362C24.4173 21.0154 24.382 20.6773 24.382 20.3391C24.382 17.9196 26.1932 15.9597 28.4279 15.9597C29.5912 15.9597 30.642 16.4887 31.3794 17.3386C32.3027 17.1478 33.1677 16.7836 33.9504 16.2806C33.647 17.3039 33.0065 18.1623 32.1695 18.6999C32.9884 18.5959 33.7695 18.3619 34.4938 18.015C33.9504 18.8909 33.2663 19.6626 32.4762 20.2783Z" fill="#09A9B5"/>
</svg>
