<svg width="40" height="40" viewBox="0 0 40 40" fill="none" xmlns="http://www.w3.org/2000/svg">
<g clip-path="url(#clip0_2299_1477)">
<path d="M13.125 25C17.6123 25 21.25 21.3623 21.25 16.875C21.25 12.3877 17.6123 8.75 13.125 8.75C8.63769 8.75 5 12.3877 5 16.875C5 21.3623 8.63769 25 13.125 25Z" stroke="white" stroke-width="2" stroke-linecap="round" stroke-linejoin="round"/>
<path d="M1.59863 31.25C2.84721 29.3302 4.5555 27.7528 6.56842 26.6607C8.58134 25.5687 10.8351 24.9967 13.1252 24.9967C15.4153 24.9967 17.669 25.5687 19.682 26.6607C21.6949 27.7528 23.4032 29.3302 24.6518 31.25" stroke="white" stroke-width="2" stroke-linecap="round" stroke-linejoin="round"/>
<path d="M26.875 25C29.1649 24.9987 31.4189 25.5697 33.432 26.6612C35.445 27.7528 37.1533 29.3302 38.4016 31.25" stroke="white" stroke-width="2" stroke-linecap="round" stroke-linejoin="round"/>
<path d="M23.8579 9.32812C24.9693 8.88484 26.165 8.6925 27.3593 8.76488C28.5537 8.83725 29.7174 9.17253 30.7672 9.74677C31.8169 10.321 32.7269 11.12 33.4321 12.0867C34.1373 13.0534 34.6202 14.164 34.8464 15.339C35.0726 16.514 35.0365 17.7244 34.7407 18.8838C34.4448 20.0433 33.8966 21.123 33.135 22.046C32.3735 22.9689 31.4175 23.7123 30.3354 24.223C29.2532 24.7336 28.0717 24.9989 26.8751 25" stroke="white" stroke-width="2" stroke-linecap="round" stroke-linejoin="round"/>
</g>
<defs>
<clipPath id="clip0_2299_1477">
<rect width="40" height="40" fill="white"/>
</clipPath>
</defs>
</svg>
